<svg width="245" height="342" viewBox="0 0 245 342" fill="none" xmlns="http://www.w3.org/2000/svg">
<path d="M190.924 204.299C194.422 200.396 210.621 181.169 217.104 173.948C220.278 170.413 220.191 169.04 220.162 164.385C220.133 159.838 220.061 155.906 219.96 151.36C219.569 133.896 218.051 96.6998 212.804 76.2005C202.691 73.6634 123.622 64.9823 86.6491 60.8766C82.1676 60.3779 78.9872 59.6044 75.4959 62.4596C70.0458 66.9267 59.7745 101.442 52.6836 147.493C108.565 158.342 163.182 162.701 219.721 169.315" stroke="#FDFDFD" stroke-width="5" stroke-linecap="round" stroke-linejoin="round"/>
<path d="M75.502 62.4523C85.2384 55.3759 91.9751 50.8004 100.577 50.2149C110.075 49.5643 122.688 50.7498 134.933 51.5955C162.523 53.5037 228.423 60.2332 231.719 65.9002C236.489 74.1115 242.185 140.51 242.142 158.545C242.127 164.248 243.371 174.049 241.159 179.304C239.583 183.056 236.294 187.595 233.555 190.602C218.744 206.836 203.68 225.341 188.87 241.575" stroke="#FDFDFD" stroke-width="5" stroke-linecap="round" stroke-linejoin="round"/>
<path d="M11.7355 173.876C10.0874 182.673 9.74049 198.069 8.70686 205.507C8.32376 208.275 9.9212 210.928 12.5523 211.882C15.1834 212.836 18.6095 213.913 21.2912 214.224" stroke="#FDFDFD" stroke-width="5" stroke-linecap="round" stroke-linejoin="round"/>
<path d="M52.6904 147.536C39.8964 155.697 24.1822 163.467 12.1834 172.907C11.3883 173.529 11.6991 174.794 12.6893 174.982C41.9276 180.569 78.3796 186.294 107.343 191.874C134.189 197.049 161.222 198.748 188.083 203.613C190.186 203.996 191.711 205.832 191.675 207.971L191.212 236.125C191.249 240.13 188.473 243.072 184.476 242.963C177.667 242.782 167.685 242.45 161.627 241.973" stroke="#FDFDFD" stroke-width="5" stroke-linecap="round" stroke-linejoin="round"/>
<path d="M143.635 196.558C143.816 194.527 142.573 192.467 142.761 190.436C120.425 182.6 96.5144 178.429 72.8419 178.249L69.0977 183.648" stroke="#FDFDFD" stroke-width="5" stroke-linecap="round" stroke-linejoin="round"/>
<path d="M116.581 107.072C110.459 114.821 109.411 126.227 114.008 134.959C115.641 138.06 117.918 140.821 120.65 143.033C124.814 146.401 130.004 148.447 135.331 148.953C144.937 149.871 154.891 145.555 160.782 137.915C166.68 130.275 168.328 119.555 165.01 110.498C163.897 107.463 162.242 104.586 159.9 102.352C156.38 98.9983 150.93 96.36 146.166 95.3914C138.656 93.8662 131.225 94.8854 124.315 98.1887C117.405 101.492 111.977 108.532 112.114 116.194" stroke="#FDFDFD" stroke-width="5" stroke-linecap="round" stroke-linejoin="round"/>
<path d="M96.131 72.3551C98.4151 72.6804 103.244 73.4393 104.704 75.2319C106.59 77.545 105.708 82.4602 105.296 85.337C104.501 90.816 103.338 96.4974 101.805 101.825C101.053 104.448 101.162 107.101 99.044 108.829C96.384 110.997 92.5892 110.838 89.1702 110.571C85.7946 110.303 75.7546 108.272 74.0126 105.366C72.7621 103.285 73.0657 100.661 73.456 98.2611C74.6125 91.2786 75.516 81.759 79.0651 75.5211C82.6142 69.2831 90.2183 71.5094 96.131 72.3551Z" stroke="#FDFDFD" stroke-width="5" stroke-linecap="round" stroke-linejoin="round"/>
<path d="M173.164 100.972C174.53 102.576 176.836 102.931 178.932 103.176C186.059 104.008 198.954 105.793 201.629 104.239C203.812 102.967 203.616 99.2153 203.869 91.7702C203.956 89.1897 203.732 86.3273 201.867 84.542C200.161 82.9084 178.665 79.0846 174.913 82.5397C171.444 85.7346 171.364 98.8611 173.164 100.972Z" stroke="#FDFDFD" stroke-width="5" stroke-linecap="round" stroke-linejoin="round"/>
<path d="M26.9208 203.707C24.0006 203.367 22.8658 202.897 20.4805 202.326C21.066 197.975 22.2181 191.29 22.8036 186.938C75.1795 195.244 125.984 205.673 178.367 213.978C177.745 217.325 177.203 225.485 175.931 230.95C173.387 230.791 168.139 230.675 165.595 230.516" stroke="#FDFDFD" stroke-width="5" stroke-linecap="round" stroke-linejoin="round"/>
<path d="M31.6133 196.984C57.382 200.266 84.6252 205.933 110.184 210.573C130.091 214.188 150.005 217.802 169.911 221.416" stroke="#FDFDFD" stroke-width="5" stroke-linecap="round" stroke-linejoin="round"/>
<path d="M169.208 222.103C152.786 258.403 144.929 298.548 146.446 338.369" stroke="#FDFDFD" stroke-width="5" stroke-linecap="round" stroke-linejoin="round"/>
<path d="M31.6125 196.984C11.3228 228.81 1.0804 266.947 2.6923 304.663C50.6011 316.07 98.7123 327.931 146.621 339.337" stroke="#FDFDFD" stroke-width="5" stroke-linecap="round" stroke-linejoin="round"/>
<path d="M43.9576 199.211C26.2557 222.355 17.8565 255.034 16.1289 284.121C16.1289 284.121 92.3507 303.572 132.518 310.771C134.961 281.323 141.293 245.052 156.646 219.797" stroke="#FDFDFD" stroke-width="5" stroke-linecap="round" stroke-linejoin="round"/>
<path d="M75.8203 84.2598C83.475 79.9807 96.522 84.455 104.155 88.7703" stroke="#FDFDFD" stroke-width="5" stroke-linecap="round" stroke-linejoin="round"/>
<path d="M101.929 98.7959C94.5927 100.184 82.2758 99.2441 74.5488 94.0325" stroke="#FDFDFD" stroke-width="5" stroke-linecap="round" stroke-linejoin="round"/>
<path d="M138.07 138.515C147.547 138.515 155.23 130.832 155.23 121.355C155.23 111.878 147.547 104.195 138.07 104.195C128.593 104.195 120.91 111.878 120.91 121.355C120.91 130.832 128.593 138.515 138.07 138.515Z" fill="#FDFDFD"/>
<path d="M100.403 132.306C100.107 129.386 98.6394 126.892 96.377 125.461C94.3025 124.153 91.6497 123.849 89.1198 124.601C88.4765 123.856 87.3778 123.647 86.496 124.16C84.1757 125.504 82.4771 127.897 81.8482 130.716C81.2338 133.477 81.7253 136.296 83.2144 138.443C84.7612 140.676 87.32 142.122 90.2474 142.418C90.6016 142.454 90.9558 142.469 91.3028 142.469C93.7748 142.469 96.0879 141.587 97.7576 139.982C99.7092 138.11 100.692 135.241 100.396 132.306H100.403Z" fill="#FDFDFD"/>
<path d="M176.342 94.8492C176.299 95.5721 176.292 96.3238 176.588 96.9816C177.904 99.8873 186.737 100.241 189.173 98.6802C190.445 96.2443 191.312 89.3413 190.011 87.4258C188.782 85.3369 179.508 84.2815 177.795 86.8693C177.166 87.8162 177.044 89.6015 176.841 90.7074C176.588 92.0808 176.422 93.4614 176.35 94.8565L176.342 94.8492Z" fill="#FDFDFD"/>
<path d="M213.461 76.1934C219.309 72.4275 224.556 70.6059 230.404 66.84" stroke="#FDFDFD" stroke-width="5" stroke-linecap="round" stroke-linejoin="round"/>
<path d="M207.2 53.8942C207.2 53.858 207.2 53.8219 207.2 53.7858C207.2 53.7352 207.2 53.6846 207.2 53.6267C207.193 53.5472 207.171 53.4677 207.149 53.3954C207.149 53.3882 207.149 53.381 207.149 53.3665C207.12 53.2798 207.084 53.2003 207.041 53.1208C207.041 53.1063 207.026 53.0991 207.019 53.0919C206.983 53.0268 206.94 52.9618 206.889 52.9039C206.889 52.9039 206.889 52.9039 206.889 52.8967C204.33 49.9548 198.432 49.7524 196.668 49.7596C193.336 49.7741 189.209 50.4536 187.611 52.3112C187.59 52.3329 187.575 52.3546 187.554 52.3835C187.395 52.6003 187.301 52.8461 187.286 53.0991C187.048 55.9542 186.997 57.53 186.946 59.3587C186.918 60.3562 186.881 61.4405 186.816 62.8717C186.787 63.421 187.098 63.927 187.597 64.1583C190.076 65.3148 194.804 65.8208 199.003 65.8208C201.685 65.8208 204.142 65.6112 205.668 65.2353C205.689 65.2353 205.718 65.2208 205.747 65.2208C205.769 65.2208 205.79 65.2064 205.812 65.1992C205.863 65.1847 205.906 65.1702 205.957 65.1486C205.993 65.1341 206.029 65.1124 206.065 65.098C206.101 65.0763 206.145 65.0546 206.181 65.0257C206.217 65.004 206.246 64.9751 206.282 64.9534C206.318 64.9245 206.347 64.8956 206.376 64.8667C206.405 64.8377 206.434 64.8088 206.455 64.7799C206.484 64.7438 206.513 64.7076 206.535 64.6715C206.557 64.6426 206.578 64.6064 206.593 64.5703C206.614 64.5342 206.636 64.4908 206.651 64.4474C206.665 64.4113 206.68 64.3751 206.694 64.3318C206.708 64.2884 206.716 64.2523 206.723 64.2089C206.73 64.1655 206.745 64.1222 206.745 64.0788C206.745 64.0643 206.745 64.0499 206.752 64.0354C206.99 61.1803 206.99 60.0021 206.99 58.86C206.99 57.7252 206.99 56.6554 207.214 53.9231L207.2 53.8942Z" fill="#FDFDFD"/>
<path d="M33.7299 65.958C26.5667 62.1559 22.0057 50.9233 23.7766 43.601C23.7983 49.7523 20.9504 63.0739 11.7344 66.1026C19.1578 70.4178 24.0441 78.152 22.9165 86.6669C22.6635 81.9541 25.9451 70.5768 33.7299 65.958Z" stroke="#FDFDFD" stroke-width="5" stroke-linecap="round" stroke-linejoin="round"/>
<path d="M70.6456 33.6477C60.6923 28.3639 54.3603 12.7654 56.8179 2.59521C56.8469 11.139 52.893 29.6505 40.0918 33.8501C50.4065 39.8496 57.1938 50.5835 55.6325 62.4161C55.2783 55.8746 59.8394 40.0664 70.6528 33.6477H70.6456Z" stroke="#FDFDFD" stroke-width="5" stroke-linecap="round" stroke-linejoin="round"/>
</svg>
