<svg width="104" height="104" viewBox="0 0 104 104" fill="none" xmlns="http://www.w3.org/2000/svg">
<path d="M25.3214 20.2958C25.3214 20.2958 25.7374 34.5648 25.8102 34.6376C24.5517 33.7744 23.2413 32.932 21.7541 32.5576C20.2669 32.1832 18.5717 32.3704 17.4276 33.3792C16.398 34.284 15.9716 35.6776 15.6908 37.0192C15.358 38.5585 15.1604 40.1705 15.5036 41.7097C15.8468 43.2489 16.7932 44.7257 18.2493 45.3498C19.4037 45.849 20.7453 45.7658 21.9413 45.381C23.1373 44.9961 24.3853 44.2057 25.4566 43.5505C25.8206 47.565 25.8102 51.6002 25.7062 55.6251H39.3824C39.3824 55.6251 39.4448 55.4795 39.4864 55.4795C38.8207 54.0235 38.4567 52.4011 38.6335 50.7994C38.8103 49.2082 39.5696 47.6482 40.828 46.6602C42.0864 45.6722 43.8752 45.329 45.3624 45.9322C46.4336 46.369 47.2761 47.253 47.8793 48.2514C49.1377 50.3418 49.2417 53.0355 48.3473 55.3027L59.2466 55.2091V48.0434C59.2258 45.8386 59.465 43.4881 59.4442 41.2833C61.5659 42.4481 63.9163 43.6441 66.2979 43.1761C68.1388 42.8121 69.7196 41.3769 70.2708 39.5777C70.8116 37.7888 70.302 35.7088 68.9708 34.388C67.6395 33.0672 65.5699 32.5368 63.7811 33.0776C62.2939 33.5248 60.5466 34.7936 59.0074 34.596C58.7682 30.1135 58.7578 25.5375 58.5186 21.055C53.8906 20.951 49.4601 20.8366 44.832 20.7326C45.3936 21.8142 45.9032 22.927 46.1528 24.1127C46.4025 25.2983 46.3505 26.5775 45.82 27.6695C44.988 29.3855 42.96 30.3839 41.0672 30.1343C39.1743 29.8847 37.5207 28.4703 36.8447 26.6919C36.1687 24.9135 36.8135 22.199 37.7911 20.5662C33.7767 20.3166 29.367 20.2854 25.3422 20.2854L25.3214 20.2958Z" stroke="#0E0E0E" stroke-width="3" stroke-linecap="round" stroke-linejoin="round"/>
<path d="M59.5709 89.2398C59.5709 89.2398 73.8399 88.8134 73.9127 88.7406C73.0495 90.0198 72.2071 91.3614 71.8327 92.8695C71.4687 94.3775 71.6455 96.1143 72.6543 97.2791C73.5591 98.3295 74.9528 98.7559 76.2944 99.0471C77.8336 99.3799 79.4456 99.588 80.9848 99.2343C82.5241 98.8807 84.0009 97.9135 84.6249 96.4367C85.1241 95.2615 85.0409 93.8887 84.6561 92.6718C84.2713 91.455 83.4809 90.1758 82.8257 89.0838C86.8401 88.7094 90.8754 88.7198 94.9002 88.8342V76.0108C94.9002 76.0108 94.7546 75.9484 94.7546 75.9068C93.2986 76.5932 91.6762 76.9572 90.0746 76.7804C88.473 76.6036 86.9233 75.8236 85.9353 74.534C84.9473 73.2444 84.6041 71.4244 85.2073 69.9059C85.6441 68.8139 86.5281 67.9507 87.5265 67.3475C89.617 66.0683 92.3106 65.9539 94.5778 66.8691L94.4842 55.7617H87.3185C85.1137 55.7825 82.7633 55.5433 80.5584 55.5641C81.7233 53.4009 82.9193 50.9985 82.4513 48.5856C82.0873 46.7136 80.652 45.0912 78.8528 44.54C77.0536 43.9888 74.984 44.5088 73.6631 45.8608C72.3423 47.2128 71.8119 49.324 72.3527 51.1545C72.7999 52.6729 74.0687 54.4513 73.8711 56.0217C69.3887 56.2713 64.8126 56.2817 60.3302 56.5209C60.2262 61.2322 60.1118 65.7563 60.0078 70.4675C61.0894 69.8955 62.2022 69.3755 63.3878 69.1259C64.5734 68.8763 65.8526 68.9179 66.9446 69.4587C68.6607 70.3115 69.6591 72.3812 69.4095 74.3052C69.1599 76.2292 67.7455 77.9244 65.967 78.6109C64.1886 79.2973 61.4742 78.6421 59.8414 77.6436C59.5917 81.7413 59.5605 85.1006 59.5605 89.2086L59.5709 89.2398Z" stroke="#0E0E0E" stroke-width="3" stroke-linecap="round" stroke-linejoin="round"/>
<path d="M17.1169 21.2229L10.3984 21.4621" stroke="#0E0E0E" stroke-width="3" stroke-linecap="round" stroke-linejoin="round"/>
<path d="M17.7919 14.41C16.2111 13.2452 14.6303 12.0803 13.0391 10.9155" stroke="#0E0E0E" stroke-width="3" stroke-linecap="round" stroke-linejoin="round"/>
<path d="M23.9811 11.6329C23.7107 9.08484 23.4403 6.53681 23.1699 3.98877" stroke="#0E0E0E" stroke-width="3" stroke-linecap="round" stroke-linejoin="round"/>
<path d="M29.8477 12.6208C30.8981 11.352 31.9485 10.0728 32.9885 8.80396" stroke="#0E0E0E" stroke-width="3" stroke-linecap="round" stroke-linejoin="round"/>
</svg>
