<svg width="106" height="104" viewBox="0 0 106 104" fill="none" xmlns="http://www.w3.org/2000/svg">
<path d="M34.0983 76.2339L30.6929 76.6527C27.6296 77.0649 24.5664 77.4771 21.5031 77.8892C20.4035 68.6949 19.3141 59.4911 18.2145 50.2967C17.6645 45.7044 17.017 41.1084 16.5751 36.5006C16.328 33.9808 17.9449 34.3641 20.1811 34.1259C22.5549 33.8636 24.9284 33.6111 27.3015 33.3683C41.2658 31.9305 55.2574 30.8064 69.2672 29.9761C69.6497 32.5302 70.0416 35.0945 70.4241 37.6487L73.7135 69.891L50.8719 73.085" stroke="#0E0E0E" stroke-width="3" stroke-linecap="round" stroke-linejoin="round"/>
<path d="M82.518 68.474C82.518 68.474 78.5183 68.8509 78.0869 68.8933L75.1161 36.7509C75.1161 36.7509 85.6232 35.2904 90.0359 34.8411C94.776 40.2262 98.608 45.8603 102.345 51.9499L103.83 66.463C102.3 66.6203 102.408 66.6049 95.674 67.2305" stroke="#0E0E0E" stroke-width="3" stroke-linecap="round" stroke-linejoin="round"/>
<path d="M64.5332 44.3721C64.5332 44.3721 65.0515 49.2856 65.5484 54.5108" stroke="#0E0E0E" stroke-width="3" stroke-linecap="round" stroke-linejoin="round"/>
<path d="M46.4147 37.8583L63.5958 37.118" stroke="#0E0E0E" stroke-width="3" stroke-linecap="round" stroke-linejoin="round"/>
<path d="M88.4481 40.1823C90.4518 43.2664 92.6916 46.5646 94.5263 49.9842L81.8955 51.2865C81.8955 51.2865 80.5432 41.2816 80.5439 41.2621L88.4478 40.1921L88.4481 40.1823Z" stroke="#0E0E0E" stroke-width="3" stroke-linecap="round" stroke-linejoin="round"/>
<path d="M102.175 55.9392L99.9988 56.1503C99.9988 56.1503 98.1262 56.3338 97.9924 56.5143C97.9103 56.6187 97.9633 56.7672 97.978 56.8948C98.2533 58.1457 98.5126 59.5621 98.7878 60.8131L103.044 60.3774" stroke="#0E0E0E" stroke-width="3" stroke-linecap="round" stroke-linejoin="round"/>
<path d="M43.2364 82.5035C47.2095 82.0386 50.0636 78.5277 49.6113 74.6617C49.1589 70.7957 45.5713 68.0385 41.5982 68.5034C37.6251 68.9683 34.771 72.4792 35.2234 76.3452C35.6758 80.2113 39.2633 82.9684 43.2364 82.5035Z" stroke="#0E0E0E" stroke-width="3" stroke-linecap="round" stroke-linejoin="round"/>
<path d="M89.5305 75.487C93.0377 75.0767 95.5568 71.9746 95.1571 68.5583C94.7574 65.1421 91.5901 62.7054 88.0829 63.1158C84.5756 63.5262 82.0565 66.6283 82.4562 70.0445C82.856 73.4607 86.0232 75.8974 89.5305 75.487Z" stroke="#0E0E0E" stroke-width="3" stroke-linecap="round" stroke-linejoin="round"/>
<path d="M89.0877 71.7049C90.4532 71.5451 91.4341 70.3391 91.2787 69.0112C91.1233 67.6832 89.8905 66.7362 88.525 66.896C87.1596 67.0558 86.1787 68.2618 86.3341 69.5897C86.4895 70.9177 87.7223 71.8647 89.0877 71.7049Z" fill="#0E0E0E"/>
<path d="M42.7618 78.4604C44.4378 78.2643 45.6415 76.7814 45.4504 75.1483C45.2593 73.5151 43.7458 72.3502 42.0698 72.5463C40.3938 72.7424 39.1901 74.2253 39.3812 75.8584C39.5723 77.4916 41.0858 78.6565 42.7618 78.4604Z" fill="#0E0E0E"/>
<path d="M19.5476 25.2983C19.6022 22.8094 19.6016 22.0475 19.6562 19.5586" stroke="#0E0E0E" stroke-width="3" stroke-linecap="round" stroke-linejoin="round"/>
<path d="M8.28164 36.4742L1.66692 38.0714" stroke="#0E0E0E" stroke-width="3" stroke-linecap="round" stroke-linejoin="round"/>
<path d="M12.7988 29.0544L4.97266 21.542" stroke="#0E0E0E" stroke-width="3" stroke-linecap="round" stroke-linejoin="round"/>
</svg>
