<svg width="107" height="104" viewBox="0 0 107 104" fill="none" xmlns="http://www.w3.org/2000/svg">
<path d="M19.7544 34.9243C25.6648 54.5229 29.7077 68.3503 35.6181 87.9389C36.1048 89.5481 36.6611 91.2666 37.9723 92.2898C39.8199 93.7301 42.3926 93.2235 44.5879 92.6176C57.7398 89.0316 71.8452 84.651 84.4507 79.4459C85.9904 78.8101 87.689 77.9956 88.2552 76.3764C88.6426 75.2639 88.5135 73.9924 88.1459 72.86C84.8282 62.6584 81.868 52.3376 78.739 42.0764C77.2887 37.3282 75.7391 32.6098 74.1398 27.9014C73.3451 25.5472 72.5306 23.2029 71.7161 20.8586C70.9909 18.7627 70.4247 16.2992 68.8851 14.6304C66.2328 11.7497 61.0079 13.6668 57.9086 14.541C48.3229 17.2528 38.8861 20.7593 29.3103 23.4711C26.6581 24.2261 23.9364 25.0108 21.7411 26.6995C19.5458 28.3882 19.2875 32.0734 19.7643 34.9045L19.7544 34.9243Z" stroke="#0E0E0E" stroke-width="3" stroke-miterlimit="10"/>
<path d="M28.4777 41.179C28.8235 42.1749 29.5814 43.2322 30.4649 43.519C31.3483 43.8058 32.2962 43.7574 33.1206 43.519C43.948 40.3105 53.8646 37.3183 64.6921 34.1098C65.6059 33.8416 66.6092 33.4939 67.0463 32.6297C67.5032 31.7357 67.1953 30.6232 66.8873 29.6497C66.3509 27.9511 65.8046 26.2525 65.2682 24.5539C64.9404 23.5307 64.5232 22.3884 63.5894 21.9116C62.7153 21.4646 61.712 21.7924 60.7882 22.0507C53.07 24.2062 32.0164 30.3179 29.4636 31.1423C28.7682 31.3708 27.4535 31.8377 26.7764 32.8373C26.1505 33.7611 26.9083 36.1166 27.097 36.7921C27.6421 38.776 27.7231 39.0062 28.4777 41.179Z" stroke="#0E0E0E" stroke-width="3" stroke-miterlimit="10"/>
<path d="M40.9209 51.7042L36.7188 53.0106C35.3672 53.4308 34.6121 54.8672 35.0323 56.2188L35.6929 58.3435C36.1131 59.6951 37.5494 60.4502 38.901 60.03L43.1031 58.7236C44.4547 58.3034 45.2098 56.8671 44.7896 55.5155L44.129 53.3907C43.7088 52.0391 42.2725 51.2841 40.9209 51.7042Z" stroke="#0E0E0E" stroke-width="3" stroke-miterlimit="10"/>
<path d="M53.9424 47.6542L49.7402 48.9606C48.3887 49.3808 47.6336 50.8171 48.0538 52.1687L48.7144 54.2935C49.1346 55.6451 50.5709 56.4001 51.9225 55.9799L56.1246 54.6735C57.4762 54.2533 58.2312 52.817 57.811 51.4654L57.1505 49.3406C56.7303 47.989 55.294 47.234 53.9424 47.6542Z" stroke="#0E0E0E" stroke-width="3" stroke-miterlimit="10"/>
<path d="M44.5674 62.5592L40.3652 63.8656C39.0137 64.2858 38.2586 65.7222 38.6788 67.0737L39.3394 69.1985C39.7596 70.5501 41.1959 71.3052 42.5475 70.885L46.7496 69.5786C48.1012 69.1584 48.8562 67.722 48.436 66.3704L47.7755 64.2457C47.3553 62.8941 45.919 62.139 44.5674 62.5592Z" stroke="#0E0E0E" stroke-width="3" stroke-miterlimit="10"/>
<path d="M57.7431 58.4635L53.541 59.7699C52.1894 60.1901 51.4344 61.6264 51.8546 62.978L52.5152 65.1028C52.9354 66.4544 54.3717 67.2094 55.7233 66.7892L59.9254 65.4828C61.277 65.0626 62.032 63.6263 61.6118 62.2747L60.9513 60.15C60.5311 58.7984 59.0947 58.0433 57.7431 58.4635Z" stroke="#0E0E0E" stroke-width="3" stroke-miterlimit="10"/>
<path d="M70.5753 54.5986L67.2363 55.6366C65.8847 56.0568 65.1297 57.4931 65.5499 58.8447L69.6077 71.8969C70.0279 73.2485 71.4642 74.0035 72.8158 73.5833L76.1547 72.5453C77.5063 72.1251 78.2614 70.6888 77.8412 69.3372L73.7834 56.285C73.3632 54.9334 71.9269 54.1784 70.5753 54.5986Z" stroke="#0E0E0E" stroke-width="3" stroke-miterlimit="10"/>
<path d="M48.1025 73.5692L43.9004 74.8756C42.5488 75.2958 41.7938 76.7322 42.214 78.0838L42.8745 80.2085C43.2947 81.5601 44.7311 82.3152 46.0827 81.895L50.2848 80.5886C51.6364 80.1684 52.3914 78.732 51.9712 77.3804L51.3106 75.2557C50.8904 73.9041 49.4541 73.149 48.1025 73.5692Z" stroke="#0E0E0E" stroke-width="3" stroke-miterlimit="10"/>
<path d="M61.1318 69.5155L56.9297 70.8219C55.5781 71.2421 54.8231 72.6784 55.2433 74.03L55.9038 76.1548C56.324 77.5064 57.7604 78.2614 59.1119 77.8413L63.3141 76.5349C64.6657 76.1147 65.4207 74.6783 65.0005 73.3267L64.3399 71.202C63.9197 69.8504 62.4834 69.0953 61.1318 69.5155Z" stroke="#0E0E0E" stroke-width="3" stroke-miterlimit="10"/>
<path d="M66.9814 43.6002L62.7793 44.9066C61.4277 45.3268 60.6727 46.7632 61.0929 48.1148L61.7534 50.2395C62.1736 51.5911 63.61 52.3462 64.9616 51.926L69.1637 50.6196C70.5153 50.1994 71.2703 48.7631 70.8501 47.4115L70.1895 45.2867C69.7693 43.9351 68.333 43.18 66.9814 43.6002Z" stroke="#0E0E0E" stroke-width="3" stroke-miterlimit="10"/>
<path d="M8.94626 34.9639C6.50264 35.2718 4.04909 35.5698 1.60547 35.8777" stroke="#0E0E0E" stroke-width="3" stroke-linecap="round" stroke-linejoin="round"/>
<path d="M10.5161 25.676C8.04271 24.335 5.55936 22.9841 3.08594 21.6431" stroke="#0E0E0E" stroke-width="3" stroke-linecap="round" stroke-linejoin="round"/>
<path d="M16.5757 19.0109C15.7412 16.5773 14.8969 14.1336 14.0625 11.7" stroke="#0E0E0E" stroke-width="3" stroke-linecap="round" stroke-linejoin="round"/>
<path d="M91.582 84.4524L95.3369 88.2072" stroke="#0E0E0E" stroke-width="3" stroke-linecap="round" stroke-linejoin="round"/>
<path d="M96.6387 78.6021C99.5194 79.0987 102.4 79.6053 105.271 80.102" stroke="#0E0E0E" stroke-width="3" stroke-linecap="round" stroke-linejoin="round"/>
<path d="M94.9492 69.7603C96.0717 69.3829 97.2041 69.0054 98.3266 68.6279" stroke="#0E0E0E" stroke-width="3" stroke-linecap="round" stroke-linejoin="round"/>
</svg>
