<svg width="104" height="104" viewBox="0 0 104 104" fill="none" xmlns="http://www.w3.org/2000/svg">
<path d="M79.0957 20.2863L86.1228 10.4512" stroke="#0E0E0E" stroke-width="3" stroke-linecap="round" stroke-linejoin="round"/>
<path d="M87.0176 30.9432L100.099 28.1509" stroke="#0E0E0E" stroke-width="3" stroke-linecap="round" stroke-linejoin="round"/>
<path d="M67.0332 19.0139L67.1413 1.82568" stroke="#0E0E0E" stroke-width="3" stroke-linecap="round" stroke-linejoin="round"/>
<path d="M66.5854 91.8469C79.5276 82.6012 82.1376 61.6744 78.2457 47.356C77.5507 44.7963 76.6241 41.9265 74.1839 40.4527C71.7437 38.979 68.3769 39.2427 66.9251 41.9575C65.7205 44.2069 66.5854 46.9526 66.9097 49.4812C67.4966 54.0886 66.817 60.8832 63.0795 62.4655C57.8903 65.6146 52.0524 55.4537 51.8053 49.0624C51.6663 45.4324 53.4887 41.1198 57.0718 40.6854C59.481 40.3907 61.7668 41.973 64.1915 41.9265C67.3421 41.8644 69.9522 38.7774 69.9985 35.6127C70.0448 32.4481 68.3305 30.8193 65.5352 29.33C62.7398 27.8408 58.4772 27.6081 55.3729 28.1821C48.8091 29.3766 43.1257 32.4946 40.5619 38.6843C37.226 46.7199 39.867 56.6637 41.1179 56.3069C44.4539 55.3451 41.4732 30.8193 40.6237 18.4555C40.5156 16.8732 40.3921 15.2598 39.7434 13.8016C39.0947 12.3434 37.8129 11.0869 36.253 10.9007C33.3959 10.5594 31.4036 13.6155 30.3534 16.3147C25.0869 29.9505 27.8668 60.6815 31.6352 59.3164C33.4267 59.5956 31.558 37.707 27.5734 26.5687C26.9402 24.8003 26.0908 22.8922 24.3919 22.132C22.4923 21.2788 20.1757 22.2561 18.8629 23.885C17.5501 25.5138 17.0405 27.6236 16.6698 29.6713C14.2451 42.8883 16.083 66.049 20.0675 64.3891C22.0135 63.2722 19.0482 50.7378 12.7779 41.5852C11.6659 39.9563 9.99795 38.1879 8.06743 38.6377C3.27974 39.7236 4.48439 50.6757 4.68516 54.1506C5.21026 62.9309 7.72766 71.6026 11.774 79.4056C16.4845 88.5116 25.5811 100.255 36.531 101.418" stroke="#0E0E0E" stroke-width="3" stroke-linecap="round" stroke-linejoin="round"/>
</svg>
