<svg width="32" height="32" viewBox="0 0 32 32" fill="none" xmlns="http://www.w3.org/2000/svg">
<path d="M9.33398 13.3335V22.6668" stroke="#0E0E0E" stroke-width="2" stroke-linecap="round" stroke-linejoin="round"/>
<path d="M14.666 17.3335V22.6668M14.666 17.3335C14.666 15.1243 16.4568 13.3335 18.666 13.3335C20.8752 13.3335 22.666 15.1243 22.666 17.3335V22.6668M14.666 17.3335V13.3335" stroke="#0E0E0E" stroke-width="2" stroke-linecap="round" stroke-linejoin="round"/>
<path d="M9.34402 9.33325H9.33203" stroke="#0E0E0E" stroke-width="2" stroke-linecap="round" stroke-linejoin="round"/>
<path d="M3.33398 16.0002C3.33398 10.029 3.33398 7.04348 5.18897 5.18848C7.04397 3.3335 10.0295 3.3335 16.0007 3.3335C21.9717 3.3335 24.9573 3.3335 26.8124 5.18848C28.6673 7.04348 28.6673 10.029 28.6673 16.0002C28.6673 21.9712 28.6673 24.9568 26.8124 26.8119C24.9573 28.6668 21.9717 28.6668 16.0007 28.6668C10.0295 28.6668 7.04397 28.6668 5.18897 26.8119C3.33398 24.9568 3.33398 21.9712 3.33398 16.0002Z" stroke="#0E0E0E" stroke-width="2" stroke-linejoin="round"/>
</svg>
