<svg width="56" height="24" viewBox="0 0 56 24" fill="none" xmlns="http://www.w3.org/2000/svg">
<g id="googlepay 1">
<path id="Vector" d="M11.926 2.00053C10.4567 2.00064 9.01629 2.42925 7.76571 3.23851C6.51512 4.04777 5.50356 5.20582 4.84398 6.58335C4.28902 7.74197 4 9.02069 4 10.3174C4 11.6141 4.28902 12.8928 4.84398 14.0514C5.50356 15.4289 6.51512 16.587 7.76571 17.3963C9.01629 18.2055 10.4567 18.6341 11.926 18.6342C14.066 18.6342 15.866 17.8956 17.18 16.6261C18.676 15.1782 19.54 13.0379 19.54 10.5073C19.5395 9.94036 19.4927 9.37452 19.4 8.81601H11.928V12.0181H16.208C16.1209 12.5296 15.936 13.0173 15.6644 13.4519C15.3929 13.8864 15.0403 14.2588 14.628 14.5466C13.916 15.0523 13 15.3419 11.928 15.3419C9.85998 15.3419 8.10598 13.8793 7.47798 11.909C7.14631 10.8764 7.14631 9.75832 7.47798 8.72578C8.10598 6.75332 9.85998 5.29286 11.928 5.29286C13.058 5.27347 14.1499 5.72117 14.968 6.53929L17.232 4.16814C15.7975 2.75352 13.8946 1.97667 11.926 2.00053ZM24.928 3.15463V17.6333H26.7V11.7684H29.63C30.836 11.7684 31.85 11.3571 32.674 10.5346C33.0842 10.1488 33.41 9.67453 33.6292 9.1443C33.8484 8.61407 33.9558 8.04039 33.944 7.46256C33.9523 6.88773 33.8433 6.31767 33.6243 5.7907C33.4052 5.26373 33.0812 4.79205 32.674 4.40735C32.2707 3.99764 31.7941 3.67581 31.2716 3.46044C30.7492 3.24506 30.1912 3.14041 29.63 3.15253L24.928 3.15463ZM29.782 4.93824C30.0912 4.9439 30.3962 5.0146 30.679 5.14616C30.9617 5.27772 31.2164 5.46745 31.428 5.70414C31.6533 5.9341 31.8324 6.20912 31.9548 6.51295C32.0771 6.81677 32.1401 7.14324 32.1401 7.47306C32.1401 7.80287 32.0771 8.12934 31.9548 8.43317C31.8324 8.73699 31.6533 9.01201 31.428 9.24197C31.2014 9.48808 30.9284 9.68183 30.6264 9.81083C30.3243 9.93983 30 10.0012 29.674 9.99109H26.7V4.93824H29.674C29.71 4.93736 29.746 4.93736 29.782 4.93824ZM38.03 7.40381C36.346 7.40381 35.076 8.0501 34.216 9.34479L35.778 10.3751C36.354 9.50007 37.138 9.06151 38.128 9.06151C38.7596 9.05337 39.3709 9.29539 39.84 9.73928C40.0709 9.93961 40.2564 10.1914 40.383 10.4763C40.5096 10.7612 40.5742 11.0721 40.572 11.3865V11.8104C39.892 11.4054 39.024 11.2039 37.972 11.2039C36.738 11.2039 35.752 11.5082 35.014 12.1146C34.274 12.719 33.906 13.5352 33.906 14.5592C33.898 15.02 33.988 15.4769 34.1697 15.8966C34.3513 16.3162 34.62 16.688 34.956 16.9849C35.656 17.6312 36.526 17.9565 37.566 17.9565C38.786 17.9565 39.762 17.3899 40.496 16.2568H40.572V17.6312H42.268V11.5271C42.268 10.2471 41.888 9.23987 41.132 8.50545C40.372 7.77102 39.34 7.40381 38.03 7.40381ZM42.556 7.72696L46.448 17.0059L44.252 22H46.082L52 7.72486H50.07L47.334 14.8404H47.294L44.482 7.72696H42.556ZM38.264 12.6959C39.252 12.6959 40.024 12.9267 40.576 13.3883C40.576 14.1689 40.282 14.8488 39.696 15.43C39.1671 15.9851 38.4501 16.2975 37.702 16.2988C37.2022 16.3088 36.7145 16.1367 36.322 15.8119C36.1394 15.6733 35.9909 15.4909 35.889 15.28C35.787 15.069 35.7346 14.8356 35.736 14.5991C35.736 14.0598 35.976 13.6129 36.462 13.2414C36.942 12.8784 37.544 12.6959 38.264 12.6959Z" fill="#0E0E0E"/>
</g>
</svg>
