<svg width="256" height="168" viewBox="0 0 256 168" fill="none" xmlns="http://www.w3.org/2000/svg">
<g id="caf-logo 1">
<g id="CAF logo with desicriptor">
<path id="Vector" d="M240.656 125.046H14.3223V126.866H240.656V125.046Z" fill="#D24509"/>
<path id="Vector_2" d="M114.84 79.2374L127.578 43.2581L141.457 79.2981L114.84 79.2374ZM142.058 18.9888H118.565L80.9531 116.976H101.502L109.973 93.4956H146.804L155.036 116.976H180.811L142.058 18.9888Z" fill="#D24509"/>
<path id="Vector_3" d="M114.84 79.1767L127.578 43.1368L141.457 79.1767H114.84ZM142.058 18.8674H118.565L80.9531 116.916H101.502L109.973 93.4349H146.804L155.036 116.916H180.811L142.058 18.8674Z" fill="#D24509"/>
<g id="Group">
<g id="Group_2">
<path id="Vector_4" d="M25.317 149.437C24.255 149.702 23.1665 149.844 22.0725 149.861C17.4461 149.861 14.2617 147.556 14.2617 142.702C14.2617 137.848 17.2659 134.996 22.0725 134.996C23.1809 135.005 24.2792 135.21 25.317 135.603L25.1368 138.03C24.2057 137.49 23.1461 137.217 22.0725 137.241C19.1285 137.241 17.326 139.486 17.326 142.459C17.326 145.432 19.1285 147.616 22.1326 147.616C23.204 147.629 24.2668 147.423 25.2569 147.01L25.317 149.437Z" fill="#D24509"/>
<path id="Vector_5" d="M27.0586 134.208H29.7623V140.518H29.8825C30.2508 139.98 30.7456 139.543 31.3224 139.247C31.8992 138.95 32.54 138.803 33.1871 138.819C35.6505 138.819 36.732 140.578 36.732 143.005V149.679H33.9682V143.976C33.9682 142.702 33.9682 140.942 32.1657 140.942C30.3632 140.942 29.7623 143.127 29.7623 144.461V149.679H27.0586V134.208Z" fill="#D24509"/>
<path id="Vector_6" d="M39.3772 139.607C40.5339 139.098 41.7805 138.83 43.0423 138.819C46.2267 138.819 47.5485 140.153 47.5485 143.308V144.643C47.5485 145.735 47.5485 146.524 47.6086 147.313C47.6687 148.102 47.6687 148.83 47.7288 149.679H45.3254C45.2541 149.156 45.214 148.629 45.2053 148.102H45.1452C44.8091 148.665 44.3327 149.129 43.7634 149.449C43.1941 149.768 42.5519 149.931 41.9007 149.922C40.0381 149.922 38.2356 148.769 38.2356 146.767C38.193 146.136 38.3429 145.507 38.6652 144.964C38.9875 144.422 39.4666 143.992 40.0381 143.733C41.1621 143.273 42.3718 143.066 43.583 143.126H45.0851C45.0851 141.428 44.304 140.821 42.7419 140.821C41.5657 140.843 40.4279 141.247 39.4974 141.974L39.3772 139.607ZM42.5616 147.859C42.9355 147.864 43.3052 147.778 43.6397 147.609C43.9742 147.44 44.2638 147.193 44.4843 146.888C44.8965 146.24 45.0865 145.472 45.025 144.704H43.8234C42.6217 144.704 40.7591 144.886 40.7591 146.524C40.7591 148.162 41.6003 147.859 42.6217 147.859H42.5616Z" fill="#D24509"/>
<path id="Vector_7" d="M49.7109 139.061H52.1143V141.488H52.1743C52.2945 140.517 53.4361 138.819 55.0583 138.819H55.8995V141.61C55.522 141.439 55.1113 141.356 54.6978 141.367C52.4748 141.367 52.4748 144.158 52.4748 145.675V149.558H49.7109V139.061Z" fill="#D24509"/>
<path id="Vector_8" d="M57.582 134.45H60.2858V137.059H57.582V134.45ZM57.582 139.001H60.2858V149.619H57.582V139.001Z" fill="#D24509"/>
<path id="Vector_9" d="M64.0116 141.064H61.9688V139.061H64.0116V136.938L66.7153 136.028V139.061H69.1187V141.064H66.7153V145.978C66.7153 146.888 66.9557 147.738 67.9771 147.738C68.4169 147.752 68.8526 147.648 69.2388 147.434V149.619C68.5729 149.798 67.8849 149.879 67.196 149.861C65.033 149.861 63.8914 148.527 63.8914 146.403L64.0116 141.064Z" fill="#D24509"/>
<path id="Vector_10" d="M70.9805 134.45H73.7443V137.059H71.0406L70.9805 134.45ZM70.9805 139.001H73.7443V149.619H71.0406L70.9805 139.001Z" fill="#D24509"/>
<path id="Vector_11" d="M84.9202 149.072C83.8122 149.668 82.5696 149.96 81.3152 149.922C77.8304 149.922 75.8477 147.92 75.8477 144.401C75.8477 140.881 77.4699 138.819 80.7144 138.819C83.9589 138.819 85.7013 141.488 85.7013 145.25H78.4312C78.5514 146.949 79.7531 147.92 81.4354 147.92C82.6715 147.869 83.8729 147.492 84.9202 146.827V149.072ZM83.0576 143.308C82.9976 141.974 82.3366 140.821 80.8346 140.821C79.3325 140.821 78.5514 141.913 78.4312 143.308H83.0576Z" fill="#D24509"/>
<path id="Vector_12" d="M93.9916 141.246C93.2043 140.949 92.3685 140.805 91.5282 140.821C90.8072 140.821 89.9059 141.064 89.9059 141.974C89.9059 142.884 94.6525 142.58 94.6525 146.403C94.6525 148.891 92.4895 149.861 90.2664 149.861C89.2112 149.857 88.161 149.714 87.1421 149.437L87.3224 147.192C88.1543 147.646 89.0807 147.895 90.0261 147.92C90.7471 147.92 91.8286 147.677 91.8286 146.646C91.8286 144.583 87.082 145.978 87.082 142.156C87.082 139.85 89.0648 138.879 91.2278 138.879C92.24 138.878 93.2487 139 94.2319 139.243L93.9916 141.246Z" fill="#D24509"/>
<path id="Vector_13" d="M105.168 135.239H108.413L114.001 149.619H110.816L109.614 146.342H103.846L102.585 149.619H99.6406L105.168 135.239ZM106.73 138.151H106.67L104.628 144.097H108.773L106.73 138.151Z" fill="#D24509"/>
<path id="Vector_14" d="M115.562 134.45H118.326V137.059H115.562V134.45ZM115.562 139.001H118.326V149.619H115.562V139.001Z" fill="#D24509"/>
<path id="Vector_15" d="M128.06 148.466H128C127.611 148.95 127.115 149.335 126.551 149.588C125.987 149.841 125.371 149.955 124.755 149.922C121.511 149.922 120.369 147.252 120.369 144.34C120.369 141.428 121.571 138.819 124.755 138.819C125.354 138.79 125.95 138.907 126.494 139.161C127.038 139.414 127.513 139.796 127.88 140.275H127.94V134.208H130.643V149.679H128L128.06 148.466ZM125.536 147.738C127.339 147.738 127.94 145.796 127.94 144.279C127.94 142.762 127.219 140.882 125.476 140.882C123.734 140.882 123.193 142.823 123.193 144.279C123.193 145.735 123.794 147.738 125.596 147.738H125.536Z" fill="#D24509"/>
</g>
<g id="Group_3">
<path id="Vector_16" d="M137.312 135.239H145.243V137.484H140.196V141.003H145.003V143.369H140.196V149.679H137.312V135.239Z" fill="#D24509"/>
<path id="Vector_17" d="M151.493 138.819C154.617 138.819 157.021 140.942 157.021 144.461C157.021 147.98 154.978 149.922 151.493 149.922C148.008 149.922 146.025 147.495 146.025 144.461C146.025 141.428 148.369 138.819 151.493 138.819ZM151.493 147.798C153.596 147.798 154.137 145.917 154.137 144.158C154.137 142.398 153.295 141.003 151.493 141.003C149.69 141.003 148.849 142.58 148.849 144.158C148.849 145.735 149.39 147.738 151.493 147.738V147.798Z" fill="#D24509"/>
<path id="Vector_18" d="M168.195 149.619H165.612V148.223H165.552C165.144 148.748 164.625 149.174 164.032 149.468C163.439 149.762 162.788 149.918 162.127 149.922C159.664 149.922 158.582 148.162 158.582 145.735V139.061H161.286V144.704C161.286 145.978 161.286 147.738 163.028 147.738C164.771 147.738 165.432 145.553 165.432 144.219V139.001H168.135L168.195 149.619Z" fill="#D24509"/>
<path id="Vector_19" d="M170.357 139.061H172.941V140.518H173.001C173.38 139.962 173.894 139.514 174.494 139.217C175.094 138.92 175.759 138.782 176.426 138.819C178.889 138.819 179.971 140.578 179.971 143.005V149.679H177.267V143.976C177.267 142.702 177.267 140.942 175.464 140.942C173.662 140.942 173.061 143.126 173.061 144.461V149.679H170.357V139.061Z" fill="#D24509"/>
<path id="Vector_20" d="M189.405 148.466H189.345C188.957 148.95 188.46 149.335 187.896 149.588C187.333 149.841 186.717 149.955 186.101 149.922C182.856 149.922 181.715 147.252 181.715 144.34C181.715 141.428 182.917 138.819 186.101 138.819C186.699 138.79 187.296 138.907 187.84 139.161C188.383 139.414 188.859 139.796 189.225 140.275H189.285V134.208H191.989V149.679H189.345L189.405 148.466ZM186.882 147.738C188.684 147.738 189.285 145.796 189.285 144.279C189.285 142.762 188.564 140.882 186.822 140.882C185.08 140.882 184.539 142.823 184.539 144.279C184.539 145.735 185.14 147.738 186.942 147.738H186.882Z" fill="#D24509"/>
<path id="Vector_21" d="M195.053 139.607C196.21 139.1 197.456 138.831 198.718 138.819C201.902 138.819 203.224 140.153 203.224 143.308V144.643C203.224 145.735 203.224 146.524 203.284 147.313C203.344 148.102 203.344 148.83 203.405 149.679H201.001C200.929 149.156 200.888 148.629 200.881 148.102H200.821C200.485 148.665 200.008 149.129 199.439 149.449C198.87 149.768 198.228 149.931 197.576 149.922C195.714 149.922 193.911 148.769 193.911 146.767C193.869 146.136 194.019 145.507 194.341 144.964C194.663 144.422 195.142 143.992 195.714 143.733C196.838 143.273 198.048 143.066 199.259 143.126H200.761C200.761 141.428 199.98 140.821 198.418 140.821C197.242 140.843 196.104 141.247 195.173 141.974L195.053 139.607ZM198.237 147.859C198.611 147.864 198.981 147.778 199.315 147.609C199.65 147.44 199.94 147.193 200.16 146.888C200.572 146.24 200.762 145.472 200.701 144.704H199.499C198.297 144.704 196.435 144.886 196.435 146.524C196.435 148.162 197.276 147.859 198.237 147.859Z" fill="#D24509"/>
<path id="Vector_22" d="M206.709 141.064H204.727V139.061H206.769V136.938L209.473 136.028V139.061H211.876V141.064H209.473V145.978C209.473 146.888 209.713 147.738 210.735 147.738C211.175 147.752 211.61 147.648 211.997 147.434V149.619C211.331 149.797 210.643 149.879 209.954 149.861C207.791 149.861 206.649 148.527 206.649 146.403L206.709 141.064Z" fill="#D24509"/>
<path id="Vector_23" d="M214.1 134.45H216.803V137.059H214.1V134.45ZM214.1 139.001H216.803V149.619H214.1V139.001Z" fill="#D24509"/>
<path id="Vector_24" d="M223.893 138.819C227.018 138.819 229.421 140.942 229.421 144.461C229.421 147.98 227.378 149.922 223.893 149.922C220.409 149.922 218.426 147.495 218.426 144.461C218.426 141.428 220.769 138.819 223.893 138.819ZM223.893 147.798C225.996 147.798 226.537 145.917 226.537 144.158C226.537 142.398 225.696 141.003 223.893 141.003C222.091 141.003 221.25 142.58 221.25 144.158C221.25 145.735 221.79 147.738 223.893 147.738V147.798Z" fill="#D24509"/>
<path id="Vector_25" d="M231.102 139.061H233.685V140.518H233.745C234.125 139.962 234.639 139.514 235.238 139.217C235.838 138.92 236.503 138.782 237.17 138.819C239.633 138.819 240.715 140.578 240.715 143.005V149.679H238.011V143.976C238.011 142.702 238.011 140.942 236.209 140.942C234.406 140.942 233.805 143.126 233.805 144.461V149.679H231.102V139.061Z" fill="#D24509"/>
</g>
</g>
<path id="Vector_26" d="M79.0915 100.716C74.5618 101.772 69.9205 102.262 65.2724 102.172C57.3013 102.172 51.0126 99.4417 46.4062 93.9811C41.7999 88.5205 39.4967 80.1273 39.4967 68.8016V67.4062C39.4967 56.8086 41.9801 48.5165 46.947 42.5301C51.8738 36.5234 58.7834 33.4898 67.5555 33.4898C71.7068 33.4417 75.8526 33.8075 79.9327 34.5819C82.7962 35.1088 85.5959 35.9427 88.2842 37.0695V22.1439C86.0011 21.1124 82.8768 20.3237 78.7911 19.7169C73.7335 19.0264 68.6334 18.702 63.53 18.7461C49.3904 18.7461 37.6541 23.0742 28.3212 31.7302C18.9883 40.3863 14.3018 51.894 14.2617 66.2534V70.0758C14.2617 85.4059 18.8681 97.0552 28.0809 105.024C37.2936 112.992 48.9898 116.956 63.1695 116.916H79.0314L86.0011 98.6529C84.1385 99.3203 81.8553 99.9877 79.0915 100.716Z" fill="#D24509"/>
<path id="Vector_27" d="M240.716 33.6112V18.9282H172.822V91.7969L182.736 116.916H197.877V74.5657H231.163V59.8827H197.877V33.6112H240.716Z" fill="#D24509"/>
</g>
</g>
</svg>
