<svg width="80" height="80" viewBox="0 0 80 80" fill="none" xmlns="http://www.w3.org/2000/svg">
<g clip-path="url(#clip0_89_5771)">
<path d="M11.4662 67.838C8.79506 57.2918 6.04474 46.4093 3.36368 35.8532C3.0372 34.5572 2.4535 33.3799 2.76019 32.0245C3.22517 29.9964 5.30275 29.5314 6.71748 29.0071C9.0226 28.1464 11.1002 27.5627 11.6938 27.2362C11.4563 25.5544 10.2692 23.7241 11.763 22.3193C12.6336 21.4981 14.2067 21.0529 15.3642 20.6968C16.5909 20.3307 17.8276 20.0042 19.0741 19.7075C20.6966 19.3216 22.3191 18.9457 23.9614 18.6786C25.1881 18.4807 26.9986 17.8574 28.1759 18.5499C29.5016 19.3216 29.4719 21.4487 29.8676 22.7348C30.6096 22.7348 44.7866 18.9754 51.3656 17.5112C52.9386 17.155 54.7293 16.8384 56.0649 17.7486C57.2818 18.5697 57.5192 19.6877 57.9248 21.3992" stroke="#F6E54E" stroke-width="2.5" stroke-linecap="round" stroke-linejoin="round"/>
<path d="M11.4668 67.8374C12.2978 71.3396 14.5436 71.3297 16.5915 70.746C18.2832 70.2612 19.0054 68.7475 20.0937 64.1076C21.2908 59.0324 22.0822 53.8879 22.7945 48.7236C23.5069 43.5594 24.7435 38.2566 27.9588 34.141L65.3453 24.9106C66.3445 28.3931 66.305 32.1129 65.5432 35.6349C64.9298 38.4842 63.5151 40.997 63.0105 43.8859C62.4367 47.1012 62.5752 50.2868 62.2586 53.5021C62.0904 55.2433 61.6749 59.5073 59.6171 60.0019C52.7512 61.6541 45.8952 63.3755 39.0293 65.0673C32.5789 66.6601 23.1804 69.1037 16.73 70.6965" stroke="#F6E54E" stroke-width="2.5" stroke-linecap="round" stroke-linejoin="round"/>
<path d="M19.3017 66.7308C18.4113 64.2872 13.1481 41.5427 11.3574 32.9356C30.1249 28.3946 49.2485 23.4678 68.006 18.9268C70.3211 30.1259 73.5858 41.236 75.9107 52.445L61.9811 55.7395" stroke="#F6E54E" stroke-width="2.5" stroke-linecap="round" stroke-linejoin="round"/>
<path d="M64.7505 12.8215L64.7109 13.2964C64.9187 11.9707 65.1265 10.645 65.3342 9.31934" stroke="#F6E54E" stroke-width="2.5" stroke-linecap="round" stroke-linejoin="round"/>
<path d="M15.9453 24.9108L24.1666 22.9717" stroke="#F6E54E" stroke-width="2.5" stroke-linecap="round" stroke-linejoin="round"/>
<path d="M72.123 15.1905C73.2212 14.2704 74.3095 13.3405 75.4076 12.4204" stroke="#F6E54E" stroke-width="2.5" stroke-linecap="round" stroke-linejoin="round"/>
<path d="M73.3105 21.769L77.9999 21.8878" stroke="#F6E54E" stroke-width="2.5" stroke-linecap="round" stroke-linejoin="round"/>
</g>
<defs>
<clipPath id="clip0_89_5771">
<rect width="80" height="80" fill="white"/>
</clipPath>
</defs>
</svg>
