<svg width="80" height="83" viewBox="0 0 80 83" fill="none" xmlns="http://www.w3.org/2000/svg">
<path d="M28.5469 29.6658L43.4629 5.74008C43.4629 5.74008 51.1755 10.733 51.2104 10.7539C51.2104 10.7539 36.4826 34.0869 36.4617 34.059C35.1995 32.483 31.0503 29.331 28.5469 29.6588V29.6658Z" stroke="#4E91F6" stroke-width="2.5" stroke-linecap="round" stroke-linejoin="round"/>
<path d="M28.516 29.7792L27.8008 39.443L36.195 34.3453" stroke="#4E91F6" stroke-width="2.5" stroke-linecap="round" stroke-linejoin="round"/>
<path d="M33.0176 31.0528L47.062 8.36844" stroke="#4E91F6" stroke-width="2.5" stroke-linecap="round" stroke-linejoin="round"/>
<path d="M32.2566 37.1128C31.7274 35.573 29.8719 34.7331 28.2059 34.6122L27.8008 39.8106L32.2566 37.1128Z" fill="#4E91F6"/>
<path d="M43.7344 5.32211C44.2295 4.5132 44.627 3.77402 45.2685 2.97208C45.8613 2.22593 46.4958 1.54951 47.4512 1.50767C48.6924 1.45188 50.373 2.28172 51.3563 3.01392C52.1722 3.62061 53.5529 4.61083 53.7203 5.60105C53.9643 7.03059 51.8863 9.77113 51.1262 10.859" stroke="#4E91F6" stroke-width="2.5" stroke-linecap="round" stroke-linejoin="round"/>
<path d="M23.4324 45.5771C18.8439 48.3525 16.3753 54.1264 17.254 59.4192C18.1257 64.712 22.1423 69.2866 27.1771 71.1484C32.6582 73.1707 38.6623 71.9853 43.3554 68.6311C47.644 65.5628 52.5393 59.5029 51.9884 53.9312C51.3329 47.2437 45.5729 44.9425 40.1406 48.6314C34.1923 52.669 32.2398 61.6786 32.7837 68.4358C33.0557 71.8109 34.2969 75.193 36.6818 77.6058C39.9872 80.953 45.0848 82.0269 49.7499 81.4551C54.4221 80.8833 59.4569 78.345 62.9994 74.6561" stroke="#4E91F6" stroke-width="2.5" stroke-linecap="round" stroke-linejoin="round"/>
</svg>
