<svg width="80" height="82" viewBox="0 0 80 82" fill="none" xmlns="http://www.w3.org/2000/svg">
<path d="M56.8932 2.7394C57.129 7.16862 56.5393 11.4599 56.5169 15.8342C59.813 16.8722 63.3188 18.2998 66.7621 19.4216C63.2613 21.0395 59.8271 22.6265 56.3264 24.2445C56.719 28.4296 57.099 32.357 57.4916 36.5421C54.798 33.3751 52.3218 30.3143 49.6266 27.1545C45.6373 28.2486 41.6167 29.3136 37.6274 30.4078C39.7193 27.1632 41.7707 23.9325 43.8626 20.6879C40.9932 17.7834 39.1538 15.1129 36.6425 12.2171C41.1352 12.3173 44.4081 13.2529 48.9009 13.353C50.95 9.95689 54.0646 5.88738 56.8932 2.7394Z" stroke="#F6E54E" stroke-width="2.5" stroke-linecap="round" stroke-linejoin="round"/>
<path d="M32.3991 24.0692C28.9539 24.2967 25.4366 24.5463 22.2529 25.8717C19.0678 27.2043 16.3987 29.8838 15.5815 33.2344C13.5203 41.6969 22.9657 48.6236 29.088 51.1471C42.4561 56.6581 62.6647 55.1047 63.8117 48.0151C64.3512 44.6655 55.9822 39.3773 39.9134 41.3157C36.2657 41.7551 32.6027 42.5137 29.3835 44.2889C26.1642 46.0641 23.4081 48.8001 22.0393 52.2059C20.5624 55.8736 21.3335 60.2891 23.7177 63.4654C26.7391 67.4894 31.9035 68.5571 36.5952 69.3444C41.0342 70.0855 46.0436 70.048 50.0463 67.727C52.1164 66.5248 54.1663 63.9012 52.7014 61.5502C52.1708 60.6951 51.2774 60.1003 50.3174 59.7837C45.3498 58.143 38.3873 61.1246 35.606 65.3549C28.4875 76.1618 40.9493 80.7153 40.9493 80.7153" stroke="#F6E54E" stroke-width="2.5" stroke-linecap="round" stroke-linejoin="round"/>
</svg>
