<svg width="83" height="80" viewBox="0 0 83 80" fill="none" xmlns="http://www.w3.org/2000/svg">
<path d="M15.4259 26.865C19.9724 41.9409 23.0823 52.5773 27.6287 67.6455C28.0032 68.8833 28.4311 70.2052 29.4397 70.9923C30.8609 72.1002 32.84 71.7105 34.5286 71.2444C44.6454 68.486 55.4958 65.1163 65.1923 61.1123C66.3767 60.6233 67.6833 59.9967 68.1189 58.7513C68.4169 57.8954 68.3175 56.9174 68.0348 56.0463C65.4827 48.1989 63.2056 40.2598 60.7987 32.3666C59.6831 28.7142 58.4911 25.0846 57.2609 21.4628C56.6496 19.6518 56.023 17.8485 55.3964 16.0452C54.8386 14.433 54.4031 12.538 53.2187 11.2543C51.1786 9.03836 47.1594 10.5131 44.7753 11.1855C37.4017 13.2715 30.1427 15.9688 22.7767 18.0548C20.7365 18.6356 18.6428 19.2392 16.9542 20.5382C15.2655 21.8372 15.0668 24.672 15.4336 26.8497L15.4259 26.865Z" stroke="#F6E54E" stroke-width="2.5" stroke-miterlimit="10"/>
<path d="M22.1373 31.6761C22.4034 32.4422 22.9863 33.2555 23.6659 33.4761C24.3456 33.6968 25.0746 33.6595 25.7089 33.4761C34.0376 31.0081 41.6658 28.7064 49.9946 26.2383C50.6975 26.032 51.4693 25.7646 51.8055 25.0998C52.157 24.4121 51.9201 23.5563 51.6832 22.8075C51.2706 21.5008 50.8504 20.1942 50.4377 18.8876C50.1856 18.1006 49.8647 17.2218 49.1464 16.8551C48.474 16.5112 47.7022 16.7634 46.9916 16.962C41.0545 18.6201 24.8595 23.3214 22.8957 23.9556C22.3608 24.1314 21.3495 24.4905 20.8286 25.2594C20.3473 25.97 20.9301 27.782 21.0753 28.3016C21.4946 29.8277 21.5569 30.0048 22.1373 31.6761Z" stroke="#F6E54E" stroke-width="2.5" stroke-miterlimit="10"/>
<path d="M31.7087 39.7725L28.4763 40.7774C27.4366 41.1006 26.8558 42.2055 27.179 43.2452L27.6871 44.8796C28.0104 45.9193 29.1152 46.5001 30.1549 46.1769L33.3873 45.172C34.427 44.8487 35.0078 43.7439 34.6846 42.7042L34.1764 41.0698C33.8532 40.0301 32.7484 39.4493 31.7087 39.7725Z" stroke="#F6E54E" stroke-width="2.5" stroke-miterlimit="10"/>
<path d="M41.7253 36.6571L38.4929 37.662C37.4532 37.9853 36.8724 39.0901 37.1956 40.1298L37.7037 41.7642C38.027 42.8039 39.1318 43.3847 40.1715 43.0615L43.4039 42.0566C44.4436 41.7334 45.0244 40.6285 44.7012 39.5888L44.193 37.9544C43.8698 36.9147 42.765 36.3339 41.7253 36.6571Z" stroke="#F6E54E" stroke-width="2.5" stroke-miterlimit="10"/>
<path d="M34.5124 48.1225L31.28 49.1274C30.2403 49.4506 29.6595 50.5555 29.9827 51.5952L30.4909 53.2296C30.8141 54.2693 31.9189 54.8501 32.9586 54.5269L36.191 53.5219C37.2307 53.1987 37.8115 52.0939 37.4883 51.0542L36.9802 49.4197C36.6569 48.38 35.5521 47.7992 34.5124 48.1225Z" stroke="#F6E54E" stroke-width="2.5" stroke-miterlimit="10"/>
<path d="M44.6491 44.972L41.4167 45.9769C40.377 46.3002 39.7962 47.405 40.1194 48.4447L40.6276 50.0792C40.9508 51.1188 42.0557 51.6996 43.0954 51.3764L46.3277 50.3715C47.3674 50.0483 47.9482 48.9434 47.625 47.9037L47.1169 46.2693C46.7936 45.2296 45.6888 44.6488 44.6491 44.972Z" stroke="#F6E54E" stroke-width="2.5" stroke-miterlimit="10"/>
<path d="M54.5203 41.9989L51.9519 42.7974C50.9122 43.1206 50.3314 44.2255 50.6546 45.2651L53.776 55.3053C54.0992 56.345 55.2041 56.9258 56.2438 56.6025L58.8122 55.804C59.8518 55.4808 60.4327 54.3759 60.1094 53.3363L56.988 43.2961C56.6648 42.2565 55.5599 41.6756 54.5203 41.9989Z" stroke="#F6E54E" stroke-width="2.5" stroke-miterlimit="10"/>
<path d="M37.2321 56.5918L33.9997 57.5967C32.96 57.92 32.3792 59.0248 32.7024 60.0645L33.2106 61.699C33.5338 62.7387 34.6387 63.3195 35.6784 62.9962L38.9108 61.9913C39.9504 61.6681 40.5312 60.5632 40.208 59.5235L39.6999 57.8891C39.3767 56.8494 38.2718 56.2686 37.2321 56.5918Z" stroke="#F6E54E" stroke-width="2.5" stroke-miterlimit="10"/>
<path d="M47.2555 53.4735L44.0231 54.4784C42.9835 54.8016 42.4027 55.9065 42.7259 56.9462L43.234 58.5806C43.5572 59.6203 44.6621 60.2011 45.7018 59.8779L48.9342 58.873C49.9739 58.5497 50.5547 57.4449 50.2315 56.4052L49.7233 54.7707C49.4001 53.7311 48.2952 53.1502 47.2555 53.4735Z" stroke="#F6E54E" stroke-width="2.5" stroke-miterlimit="10"/>
<path d="M51.7555 33.5388L48.5231 34.5437C47.4835 34.8669 46.9027 35.9718 47.2259 37.0115L47.734 38.6459C48.0572 39.6856 49.1621 40.2664 50.2018 39.9432L53.4342 38.9382C54.4739 38.615 55.0547 37.5101 54.7314 36.4705L54.2233 34.836C53.9001 33.7963 52.7952 33.2155 51.7555 33.5388Z" stroke="#F6E54E" stroke-width="2.5" stroke-miterlimit="10"/>
<path d="M7.11258 26.8954C5.23288 27.1322 3.34553 27.3615 1.46582 27.5983" stroke="#F6E54E" stroke-width="2.5" stroke-linecap="round" stroke-linejoin="round"/>
<path d="M8.32002 19.7508C6.41739 18.7193 4.50712 17.6801 2.60449 16.6486" stroke="#F6E54E" stroke-width="2.5" stroke-linecap="round" stroke-linejoin="round"/>
<path d="M12.981 14.6238C12.3392 12.7518 11.6897 10.8721 11.0479 9" stroke="#F6E54E" stroke-width="2.5" stroke-linecap="round" stroke-linejoin="round"/>
<path d="M70.6787 64.9635L73.567 67.8518" stroke="#F6E54E" stroke-width="2.5" stroke-linecap="round" stroke-linejoin="round"/>
<path d="M74.5684 60.4631C76.7843 60.8452 79.0002 61.2349 81.2085 61.6169" stroke="#F6E54E" stroke-width="2.5" stroke-linecap="round" stroke-linejoin="round"/>
<path d="M73.2695 53.6618C74.133 53.3714 75.0041 53.0811 75.8675 52.7907" stroke="#F6E54E" stroke-width="2.5" stroke-linecap="round" stroke-linejoin="round"/>
</svg>
