<svg width="82" height="80" viewBox="0 0 82 80" fill="none" xmlns="http://www.w3.org/2000/svg">
<path d="M26.4596 58.6414L23.8401 58.9636C21.4837 59.2807 19.1274 59.5977 16.771 59.9148C15.9252 52.8422 15.0871 45.7623 14.2413 38.6897C13.8183 35.1572 13.3202 31.6218 12.9802 28.0774C12.7902 26.1391 14.034 26.4339 15.7541 26.2507C17.5801 26.0489 19.4058 25.8546 21.2313 25.6679C31.9731 24.5619 42.7358 23.6972 53.5126 23.0585C53.8069 25.0232 54.1083 26.9958 54.4025 28.9605L56.9328 53.7623L39.3624 56.2192" stroke="#F6E54E" stroke-width="2.5" stroke-linecap="round" stroke-linejoin="round"/>
<path d="M63.7063 52.6724C63.7063 52.6724 60.6296 52.9623 60.2978 52.9949L58.0125 28.27C58.0125 28.27 66.0949 27.1466 69.4893 26.801C73.1355 30.9433 76.0832 35.2772 78.9576 39.9616L80.1003 51.1255C78.9235 51.2465 79.0066 51.2346 73.8263 51.7159" stroke="#F6E54E" stroke-width="2.5" stroke-linecap="round" stroke-linejoin="round"/>
<path d="M49.8711 34.1324C49.8711 34.1324 50.2698 37.912 50.652 41.9315" stroke="#F6E54E" stroke-width="2.5" stroke-linecap="round" stroke-linejoin="round"/>
<path d="M35.9325 29.1219L49.1488 28.5524" stroke="#F6E54E" stroke-width="2.5" stroke-linecap="round" stroke-linejoin="round"/>
<path d="M68.2669 30.9095C69.8082 33.2818 71.5311 35.8189 72.9424 38.4493L63.2264 39.4511C63.2264 39.4511 62.1862 31.7551 62.1867 31.74L68.2666 30.917L68.2669 30.9095Z" stroke="#F6E54E" stroke-width="2.5" stroke-linecap="round" stroke-linejoin="round"/>
<path d="M78.8264 43.0301L77.1522 43.1925C77.1522 43.1925 75.7117 43.3336 75.6088 43.4725C75.5456 43.5528 75.5864 43.667 75.5977 43.7651C75.8095 44.7274 76.0089 45.817 76.2207 46.7792L79.4944 46.4441" stroke="#F6E54E" stroke-width="2.5" stroke-linecap="round" stroke-linejoin="round"/>
<path d="M33.4893 63.4643C36.5455 63.1067 38.741 60.406 38.393 57.4321C38.045 54.4583 35.2853 52.3374 32.2291 52.695C29.1729 53.0526 26.9774 55.7533 27.3254 58.7272C27.6734 61.701 30.433 63.8219 33.4893 63.4643Z" stroke="#F6E54E" stroke-width="2.5" stroke-linecap="round" stroke-linejoin="round"/>
<path d="M69.1 58.067C71.7979 57.7513 73.7357 55.3651 73.4282 52.7372C73.1207 50.1094 70.6844 48.235 67.9865 48.5507C65.2886 48.8664 63.3508 51.2526 63.6583 53.8805C63.9658 56.5083 66.4022 58.3827 69.1 58.067Z" stroke="#F6E54E" stroke-width="2.5" stroke-linecap="round" stroke-linejoin="round"/>
<path d="M68.7584 55.1576C69.8088 55.0347 70.5633 54.107 70.4438 53.0855C70.3243 52.064 69.3759 51.3356 68.3256 51.4585C67.2753 51.5814 66.5207 52.5091 66.6403 53.5306C66.7598 54.5521 67.7081 55.2805 68.7584 55.1576Z" fill="#F6E54E"/>
<path d="M33.1245 60.3541C34.4137 60.2033 35.3397 59.0626 35.1927 57.8063C35.0457 56.5501 33.8814 55.6539 32.5921 55.8048C31.3029 55.9556 30.377 57.0963 30.524 58.3526C30.671 59.6089 31.8353 60.505 33.1245 60.3541Z" fill="#F6E54E"/>
<path d="M15.268 19.4603C15.31 17.5457 15.3095 16.9596 15.3516 15.0451" stroke="#F6E54E" stroke-width="2.5" stroke-linecap="round" stroke-linejoin="round"/>
<path d="M6.59931 28.0572L1.51106 29.2858" stroke="#F6E54E" stroke-width="2.5" stroke-linecap="round" stroke-linejoin="round"/>
<path d="M10.0748 22.3496L4.05469 16.5708" stroke="#F6E54E" stroke-width="2.5" stroke-linecap="round" stroke-linejoin="round"/>
</svg>
