<svg width="80" height="80" viewBox="0 0 80 80" fill="none" xmlns="http://www.w3.org/2000/svg">
<g clip-path="url(#clip0_89_5798)">
<path d="M69.9825 26.0863C69.8111 23.2006 68.9364 20.6576 67.4665 18.7097C68.0436 17.7178 68.3502 16.1577 68.6027 14.5976L68.6388 14.3812C68.8733 12.9384 68.8282 11.8292 67.8723 10.738C67.5747 10.3953 67.205 10.0707 66.7902 9.71C65.4736 8.58277 63.9496 7.57278 62.2452 6.72511C59.5308 5.37244 56.3746 4.38049 52.2986 3.59594C45.6164 2.31542 39.4482 2.3605 33.9745 3.73121C31.9815 4.20915 30.0247 4.84941 28.14 5.61592L27.9325 5.69708C27.0308 6.05779 26.0929 6.43654 25.5879 7.91546C25.3264 8.66393 25.2452 9.40339 25.1551 10.1428C25.137 10.3052 25.119 10.4765 25.0919 10.6388C24.9567 11.5947 24.9116 12.5867 24.9477 13.5696C22.6571 14.805 20.6913 17.0234 19.4017 19.846C18.1663 22.5423 17.6072 25.4911 17.1202 28.0792C14.3878 42.3544 12.7286 52.2649 10.7447 65.9539C10.6725 66.4318 10.8799 66.9008 11.2677 67.1713C11.8088 68.1182 12.6564 68.8035 13.2786 69.2995C16.5611 71.9327 20.4297 73.9797 24.4517 75.2332C27.2562 76.0989 30.1509 76.7752 33.0637 77.2532C36.4634 77.8033 39.9532 78.0828 43.4521 78.0828C43.7948 78.0828 44.1375 78.0828 44.4802 78.0828C46.41 78.0558 48.0332 77.8303 50.0892 77.5417L51.3698 77.3704C53.4529 77.0909 55.5991 76.2973 56.6993 75.8464L56.8255 75.7923C58.2684 75.2061 59.5128 74.6921 60.9557 72.5639C61.0909 72.3655 61.1631 72.1311 61.1631 71.9597C64.4365 57.7116 66.6098 48.0807 69.1167 34.6081C69.5947 32.02 70.1448 29.0802 69.9644 26.1043L69.9825 26.0863ZM30.1419 7.56376C31.5757 7.03172 33.0546 6.57181 34.5606 6.2111C39.2679 5.03879 44.5613 4.91254 50.2876 5.84137C50.7926 5.92253 51.2976 6.01271 51.8026 6.1119C55.6442 6.85136 58.602 7.77117 61.0909 9.01563C62.4706 9.71 63.7241 10.5036 64.8062 11.3873C63.156 11.7661 61.4516 11.8382 59.9457 11.8743C49.8187 12.1087 39.7909 10.6569 30.1509 7.56376H30.1419ZM29.0327 12.3522C28.9516 12.6859 29.0057 13.0285 29.186 13.3171C29.3664 13.6057 29.6459 13.8131 29.9886 13.8942C30.6649 14.0475 31.3503 13.6147 31.5126 12.9474L32.0176 10.8011C32.9104 11.0627 33.767 11.2971 34.6057 11.5136C34.3983 12.6498 34.1278 13.777 33.8121 14.8682C33.5416 15.2108 33.4604 15.6798 33.6047 16.1036C33.7851 16.6266 34.2901 16.9873 34.8402 16.9873H34.8582C35.3091 16.9873 35.9133 16.7168 36.1387 15.9954C36.5265 14.7419 36.8421 13.4434 37.0946 12.1087C38.303 12.3883 39.5294 12.6408 40.7648 12.8662C40.7288 13.1187 40.6927 13.3532 40.6386 13.5876C40.4763 14.273 40.9091 14.9583 41.5945 15.1207C42.2618 15.274 42.9652 14.8501 43.1275 14.1648C43.1906 13.8852 43.2447 13.5967 43.2898 13.2991C44.5974 13.5065 45.9771 13.6868 47.3839 13.8492C47.3388 14.4083 47.2576 14.9583 47.1494 15.4904C47.0773 15.8241 47.1404 16.1667 47.3298 16.4553C47.5192 16.7439 47.7987 16.9332 48.1955 17.0234C48.8718 17.1316 49.5031 16.6988 49.6474 16.0315C49.7826 15.4092 49.8728 14.769 49.9269 14.1107C50.8918 14.1918 51.8838 14.264 52.8757 14.3181C52.7946 14.9313 52.6954 15.5265 52.5781 16.1126C52.506 16.4463 52.5781 16.789 52.7585 17.0685C52.9479 17.3571 53.2364 17.5464 53.6242 17.6276C54.2915 17.7358 54.9408 17.294 55.0761 16.6266C55.2294 15.9052 55.3466 15.1658 55.4368 14.4083C56.6993 14.4443 57.9527 14.4533 59.1701 14.4353C59.116 15.1567 59.0078 15.8691 58.8635 16.5545C58.7914 16.8882 58.8545 17.2308 59.0349 17.5194C59.2152 17.808 59.5038 18.0064 59.8284 18.0785C60.1531 18.1506 60.4958 18.0965 60.7843 17.9162C61.0729 17.7358 61.2803 17.4473 61.3524 17.1046C61.5508 16.2208 61.6771 15.292 61.7312 14.3632C62.2272 14.3361 62.6871 14.3 63.1199 14.255C63.0658 14.5345 62.9666 14.805 62.8494 15.0575C62.6961 15.3641 62.6781 15.7068 62.7863 16.0315C62.8945 16.3561 63.1199 16.6176 63.4265 16.7709C63.5438 16.825 63.661 16.8701 63.7872 16.8882C64.3373 16.9783 64.8784 16.6988 65.1309 16.1938C65.5006 15.4543 65.708 14.6337 65.7351 13.7951C65.8884 13.759 66.0327 13.7139 66.177 13.6778C66.1679 13.768 66.1499 13.8672 66.1319 13.9754L66.0958 14.2009C65.699 16.6807 65.3563 17.339 65.2662 17.4653C62.2181 19.0975 58.4397 19.0163 54.7604 18.9352H54.2194C53.1553 18.8991 52.0461 18.8901 51.0632 18.8811H50.8197C47.3388 18.845 43.7407 18.7999 40.2599 18.3851C35.0476 17.7539 30.8994 16.3561 27.5989 14.1017C27.5538 14.0656 27.5177 14.0475 27.4997 14.0475C27.4997 14.0475 27.4997 14.0475 27.4997 14.0566C27.4997 14.0295 27.4997 14.0025 27.4997 13.9664C27.4275 12.9835 27.4636 11.9825 27.5989 10.9995L27.671 10.4224C27.7071 10.0978 27.7522 9.78214 27.8063 9.48455C28.3924 9.68294 28.9876 9.88133 29.5918 10.0707L29.0507 12.3702L29.0327 12.3522ZM50.9189 21.4151C51.983 21.4241 53.0831 21.4421 54.1563 21.4602H54.6973C58.3044 21.5503 62.0288 21.6405 65.4014 20.2067C66.5737 21.7397 67.2952 23.8679 67.4394 26.2306C67.5927 28.8818 67.0787 31.6593 66.6278 34.1211C64.2111 47.1428 62.146 56.3139 58.9988 70.0299C51.5411 65.8908 42.857 64.4389 34.5696 63.492C31.8372 63.1764 28.7532 62.8608 25.5969 62.8608C24.7853 62.8608 23.9737 62.8788 23.1621 62.9329C19.7805 63.1313 16.5611 63.7536 13.5582 64.4299C15.4519 51.5435 17.0391 42.1019 19.6001 28.5481C20.06 26.0953 20.5831 23.3268 21.6922 20.9101C22.7022 18.7097 24.1721 16.9603 25.8675 15.9683C25.9576 16.0495 26.0568 16.1216 26.1651 16.1938C29.4205 18.4122 33.3342 19.873 38.1317 20.6486C38.7268 20.7478 39.331 20.8289 39.9532 20.9011C43.5694 21.3429 47.2396 21.379 50.8107 21.4151H50.9279H50.9189ZM23.3064 65.476C27.0939 65.2595 30.9625 65.6473 34.2811 66.026C42.352 66.9549 50.7836 68.3526 57.8626 72.3114C57.2944 72.8254 56.7263 73.0599 55.8696 73.4116L55.7434 73.4657C54.7604 73.8715 52.8397 74.5839 51.0451 74.8184L49.7375 74.9987C47.7626 75.2693 46.2116 75.4857 44.4441 75.5127C37.8521 75.621 31.3773 74.7011 25.2092 72.7894C21.4938 71.6351 17.9138 69.7414 14.8748 67.3066C14.6944 67.1623 14.5141 67.018 14.3427 66.8647C17.1473 66.2425 20.1592 65.6653 23.2884 65.485L23.3064 65.476Z" fill="#F6E54E"/>
<path d="M31.5208 60.1285C28.8606 56.7288 25.5059 52.743 22.8457 49.3433C27.03 48.694 30.4387 45.6009 32.9366 42.1741C35.4345 38.7564 37.2922 34.8878 39.9705 31.6053C42.6487 28.3228 46.4452 25.5724 50.6836 25.5904C52.9651 29.0623 55.6163 33.5982 57.8978 37.0701C53.8128 38.1792 50.9271 41.8224 48.9792 45.5828C47.0314 49.3433 45.6787 53.4463 43.1267 56.828C40.5747 60.2097 35.6329 61.1024 31.5208 60.1195V60.1285Z" stroke="#F6E54E" stroke-width="2.5" stroke-linecap="round" stroke-linejoin="round"/>
<path d="M39.1059 46.7557C40.1249 47.4591 41.5137 47.5944 42.6499 47.0803C43.182 46.8369 43.6599 46.4671 44.0116 45.9982C44.706 45.0784 44.8863 43.8069 44.4896 42.7338C43.7591 40.7769 40.8734 39.7218 39.0338 40.831C36.9327 42.1025 37.2573 45.4752 39.115 46.7647L39.1059 46.7557Z" stroke="#F6E54E" stroke-width="2.5" stroke-linecap="round" stroke-linejoin="round"/>
<path d="M42.126 34.7893C43.2712 32.4537 45.3814 30.6141 47.8523 29.7935" stroke="#F6E54E" stroke-width="2.5" stroke-linecap="round" stroke-linejoin="round"/>
<path d="M40.6656 51.4895C39.2678 53.8612 37.1757 55.818 34.7139 57.0445" stroke="#F6E54E" stroke-width="2.5" stroke-linecap="round" stroke-linejoin="round"/>
</g>
<defs>
<clipPath id="clip0_89_5798">
<rect width="80" height="80" fill="white"/>
</clipPath>
</defs>
</svg>
