<svg width="80" height="80" viewBox="0 0 80 80" fill="none" xmlns="http://www.w3.org/2000/svg">
<g clip-path="url(#clip0_89_5810)">
<path d="M19.4792 15.6122C19.4792 15.6122 19.7992 26.5884 19.8552 26.6444C18.8872 25.9804 17.8791 25.3324 16.7351 25.0444C15.5911 24.7564 14.2871 24.9004 13.4071 25.6764C12.6151 26.3724 12.2871 27.4444 12.0711 28.4764C11.8151 29.6604 11.6631 30.9005 11.9271 32.0845C12.1911 33.2685 12.9191 34.4045 14.0391 34.8845C14.9271 35.2685 15.9591 35.2045 16.8791 34.9085C17.7991 34.6125 18.7592 34.0045 19.5832 33.5005C19.8632 36.5885 19.8552 39.6926 19.7752 42.7886H30.2953C30.2953 42.7886 30.3433 42.6766 30.3753 42.6766C29.8633 41.5566 29.5833 40.3086 29.7193 39.0766C29.8553 37.8526 30.4393 36.6525 31.4073 35.8925C32.3753 35.1325 33.7514 34.8685 34.8954 35.3325C35.7194 35.6685 36.3674 36.3485 36.8314 37.1165C37.7994 38.7246 37.8794 40.7966 37.1914 42.5406L45.5755 42.4686V36.9565C45.5595 35.2605 45.7435 33.4525 45.7275 31.7565C47.3596 32.6525 49.1676 33.5725 50.9996 33.2125C52.4156 32.9325 53.6316 31.8285 54.0556 30.4445C54.4717 29.0684 54.0796 27.4684 53.0556 26.4524C52.0316 25.4364 50.4396 25.0284 49.0636 25.4444C47.9196 25.7884 46.5755 26.7644 45.3915 26.6124C45.2075 23.1644 45.1995 19.6443 45.0155 16.1963C41.4555 16.1163 38.0474 16.0283 34.4874 15.9483C34.9194 16.7803 35.3114 17.6363 35.5034 18.5483C35.6954 19.4603 35.6554 20.4443 35.2474 21.2843C34.6074 22.6043 33.0474 23.3724 31.5913 23.1804C30.1353 22.9884 28.8633 21.9003 28.3433 20.5323C27.8233 19.1643 28.3193 17.0763 29.0713 15.8203C25.9833 15.6282 22.5912 15.6042 19.4952 15.6042L19.4792 15.6122Z" stroke="#4E91F6" stroke-width="2.5" stroke-linecap="round" stroke-linejoin="round"/>
<path d="M45.8234 68.6461C45.8234 68.6461 56.7996 68.3181 56.8556 68.2621C56.1916 69.2461 55.5436 70.2781 55.2556 71.4382C54.9756 72.5982 55.1116 73.9342 55.8876 74.8302C56.5836 75.6382 57.6556 75.9662 58.6876 76.1902C59.8716 76.4462 61.1116 76.6062 62.2957 76.3342C63.4797 76.0622 64.6157 75.3182 65.0957 74.1822C65.4797 73.2782 65.4157 72.2222 65.1197 71.2862C64.8237 70.3501 64.2157 69.3661 63.7117 68.5261C66.7997 68.2381 69.9038 68.2461 72.9998 68.3341V58.47C72.9998 58.47 72.8878 58.422 72.8878 58.39C71.7678 58.918 70.5198 59.198 69.2878 59.062C68.0557 58.926 66.8637 58.326 66.1037 57.334C65.3437 56.3419 65.0797 54.9419 65.5437 53.7739C65.8797 52.9339 66.5597 52.2699 67.3277 51.8059C68.9358 50.8219 71.0078 50.7339 72.7518 51.4379L72.6798 42.8938H67.1677C65.4717 42.9098 63.6637 42.7258 61.9677 42.7418C62.8637 41.0777 63.7837 39.2297 63.4237 37.3737C63.1437 35.9337 62.0397 34.6856 60.6556 34.2616C59.2716 33.8376 57.6796 34.2376 56.6636 35.2776C55.6476 36.3177 55.2396 37.9417 55.6556 39.3497C55.9996 40.5177 56.9756 41.8857 56.8236 43.0938C53.3755 43.2858 49.8555 43.2938 46.4074 43.4778C46.3274 47.1018 46.2394 50.5819 46.1594 54.2059C46.9914 53.7659 47.8475 53.3659 48.7595 53.1739C49.6715 52.9819 50.6555 53.0139 51.4955 53.4299C52.8155 54.0859 53.5835 55.6779 53.3915 57.158C53.1995 58.638 52.1115 59.942 50.7435 60.47C49.3755 60.998 47.2875 60.494 46.0314 59.726C45.8394 62.878 45.8154 65.4621 45.8154 68.6221L45.8234 68.6461Z" stroke="#4E91F6" stroke-width="2.5" stroke-linecap="round" stroke-linejoin="round"/>
<path d="M13.1671 16.3254L7.99902 16.5094" stroke="#4E91F6" stroke-width="2.5" stroke-linecap="round" stroke-linejoin="round"/>
<path d="M13.6873 11.0845C12.4713 10.1885 11.2553 9.2925 10.0312 8.39648" stroke="#4E91F6" stroke-width="2.5" stroke-linecap="round" stroke-linejoin="round"/>
<path d="M18.4473 8.94844C18.2392 6.98841 18.0312 5.02839 17.8232 3.06836" stroke="#4E91F6" stroke-width="2.5" stroke-linecap="round" stroke-linejoin="round"/>
<path d="M22.96 9.70826C23.768 8.73224 24.576 7.74823 25.376 6.77222" stroke="#4E91F6" stroke-width="2.5" stroke-linecap="round" stroke-linejoin="round"/>
</g>
<defs>
<clipPath id="clip0_89_5810">
<rect width="80" height="80" fill="white"/>
</clipPath>
</defs>
</svg>
