<svg width="80" height="82" viewBox="0 0 80 82" fill="none" xmlns="http://www.w3.org/2000/svg">
<path d="M34.5488 42.203C30.4585 39.2358 28.6228 31.9131 30.3459 27.5505C29.8273 31.3474 26.914 39.3226 20.9666 40.3916C25.1742 43.6978 27.5187 48.8946 26.082 54.0474C26.3285 51.1197 29.3454 44.3816 34.5478 42.2103L34.5488 42.203Z" stroke="#4E91F6" stroke-width="2.5" stroke-linecap="round" stroke-linejoin="round"/>
<path d="M60.2583 22.1115C54.5753 17.9905 52.0231 7.8148 54.4197 1.75445C53.6934 7.02959 49.6549 18.1014 41.3915 19.5875C47.2331 24.1808 50.4865 31.3952 48.4978 38.5553C48.8446 34.4867 53.0318 25.1307 60.2583 22.1115Z" stroke="#4E91F6" stroke-width="2.5" stroke-linecap="round" stroke-linejoin="round"/>
<path d="M46.8397 70.3968C43.5931 68.0432 42.1305 62.2279 43.5017 58.7683C43.0863 61.7772 40.7785 68.1126 36.0552 68.9562C39.3916 71.5775 41.2568 75.7019 40.1192 79.7943C40.3187 77.4675 42.7118 72.1266 46.8397 70.3968Z" stroke="#4E91F6" stroke-width="2.5" stroke-linecap="round" stroke-linejoin="round"/>
</svg>
