<svg width="80" height="80" viewBox="0 0 80 80" fill="none" xmlns="http://www.w3.org/2000/svg">
<path d="M15.7588 15.973C12.2622 28.0905 9.27809 40.3889 6.81641 52.8279C24.3396 60.9866 41.7221 69.6578 59.0242 77.5653C63.7265 64.5234 68.2077 51.6322 73.0005 38.6908" stroke="#F6E54E" stroke-width="2.5" stroke-linecap="round" stroke-linejoin="round"/>
<path d="M7.26758 52.2243C13.9995 49.7626 20.7516 47.321 27.5137 44.8895C29.8146 44.0656 32.1356 43.2316 34.5571 42.9202C36.9786 42.6087 39.5508 42.8599 41.6608 44.0857C44.3234 45.623 45.911 48.4363 47.3277 51.1492C51.7889 59.6696 55.6773 68.4312 58.993 77.3937" stroke="#F6E54E" stroke-width="2.5" stroke-linecap="round" stroke-linejoin="round"/>
<path d="M15.748 16.234C23.5049 24.242 30.3071 33.0639 35.9841 42.4886" stroke="#F6E54E" stroke-width="2.5" stroke-linecap="round" stroke-linejoin="round"/>
<path d="M42.8076 45.0505C52.5237 41.8855 62.5513 39.675 72.6995 38.4191" stroke="#F6E54E" stroke-width="2.5" stroke-linecap="round" stroke-linejoin="round"/>
<path d="M21.0234 20.0918C22.4 14.1134 24.4095 8.55707 25.7961 2.58875C28.6898 3.52318 42.8872 8.67764 47.3484 10.2953C56.0597 13.4804 64.5098 17.3588 72.6283 21.9004C70.9705 27.5673 68.559 33.5557 66.9213 39.2427" stroke="#F6E54E" stroke-width="2.5" stroke-linecap="round" stroke-linejoin="round"/>
<path d="M72.6282 38.8003C71.6133 36.64 70.6086 34.4697 69.5938 32.3094" stroke="#F6E54E" stroke-width="2.5" stroke-linecap="round" stroke-linejoin="round"/>
<path d="M15.4082 16.012C17.6991 14.9269 20 13.8417 22.3009 12.7566" stroke="#F6E54E" stroke-width="2.5" stroke-linecap="round" stroke-linejoin="round"/>
<path d="M39.9043 7.59282C44.6569 6.01533 49.4094 4.45794 54.172 2.8905C56.8346 7.38182 59.4772 11.8631 62.1197 16.3343" stroke="#F6E54E" stroke-width="2.5" stroke-linecap="round" stroke-linejoin="round"/>
<path d="M35.7432 18.1123C42.6761 20.8352 49.5889 23.5481 56.4916 26.2409" stroke="#F6E54E" stroke-width="2.5" stroke-linecap="round" stroke-linejoin="round"/>
<path d="M35.3818 24.5128C40.898 26.5023 46.2434 28.9238 51.3577 31.7371" stroke="#F6E54E" stroke-width="2.5" stroke-linecap="round" stroke-linejoin="round"/>
<path d="M37.9648 32.3406C40.2256 33.3252 43.7925 34.6817 45.6614 35.5156" stroke="#F6E54E" stroke-width="2.5" stroke-linecap="round" stroke-linejoin="round"/>
</svg>
