<svg width="80" height="80" viewBox="0 0 80 80" fill="none" xmlns="http://www.w3.org/2000/svg">
<path d="M12.1913 54.0385C4.52411 44.7911 7.99615 27.6313 12.5855 21.4201C21.443 9.43481 35.1345 6.0535 45.1353 5.56768C59.1914 4.8862 72.1209 13.954 76.1987 26.8307C79.0817 35.9103 77.6042 46.2116 73.1768 54.559C66.1518 67.7851 50.5771 72.7926 36.366 71.9779C33.8062 71.8303 31.1673 71.4497 28.9878 70.095C26.8082 68.7403 25.1991 66.2029 25.6251 63.6739C26.051 61.1448 29.0273 59.1659 31.3295 60.2985C33.3061 61.2655 33.9099 63.9737 33.1624 66.0354C32.4148 68.0971 30.638 69.628 28.8295 70.8848C22.3611 75.3685 12.2966 76.7379 4.43521 76.2076C7.28964 75.7191 9.61261 74.2757 11.6268 72.1882C13.641 70.1007 14.9697 67.3703 15.3721 64.5038" stroke="#F6E54E" stroke-width="2.5" stroke-linecap="round" stroke-linejoin="round"/>
<path d="M29.0929 41.7624C30.7457 41.6469 31.9919 40.2133 31.8763 38.5605C31.7607 36.9077 30.3272 35.6615 28.6743 35.7771C27.0215 35.8926 25.7753 37.3262 25.8909 38.979C26.0065 40.6318 27.4401 41.878 29.0929 41.7624Z" fill="#F6E54E"/>
<path d="M42.0606 40.8556C43.7135 40.74 44.9596 39.3064 44.8441 37.6536C44.7285 36.0008 43.2949 34.7546 41.6421 34.8702C39.9893 34.9858 38.7431 36.4193 38.8587 38.0722C38.9743 39.725 40.4078 40.9712 42.0606 40.8556Z" fill="#F6E54E"/>
<path d="M55.0294 39.9487C56.6822 39.8331 57.9284 38.3996 57.8128 36.7468C57.6972 35.0939 56.2637 33.8478 54.6109 33.9633C52.958 34.0789 51.7119 35.5125 51.8274 37.1653C51.943 38.8181 53.3766 40.0643 55.0294 39.9487Z" fill="#F6E54E"/>
</svg>
