<svg width="80" height="87" viewBox="0 0 80 87" fill="none" xmlns="http://www.w3.org/2000/svg">
<path d="M56.6013 54.9916C56.0069 53.5106 52.3628 54.0465 50.8135 54.4265C45.9806 55.5957 42.0636 56.8722 37.562 58.9866C33.9275 60.6917 27.0582 65.4272 24.9048 69.0519C20.0427 77.2172 37.0358 68.9837 38.6338 68.2821C43.6129 66.08 58.0921 58.6845 56.611 55.0014L56.6013 54.9916Z" stroke="#4E91F6" stroke-width="2.5" stroke-linecap="round" stroke-linejoin="round"/>
<path d="M24.0469 71.6435C26.3854 78.8052 36.8502 91.4039 52.6741 80.5493C58.4619 76.5836 60.9758 71.8286 60.2352 64.4331C59.446 56.5699 51.2515 39.6255 49.9458 31.8305C49.2638 27.7965 48.4648 23.7042 48.6109 19.602C48.7473 15.7143 49.5658 10.0726 51.6412 6.73051C53.5705 3.62225 58.5788 -0.859889 62.0184 4.08995C62.8953 5.34689 62.9538 7.00333 62.9927 8.54285C63.1291 14.0481 61.5507 19.5728 58.5301 24.1816" stroke="#4E91F6" stroke-width="2.5" stroke-linecap="round" stroke-linejoin="round"/>
<path d="M33.9263 54.2996C32.4063 54.2996 30.896 53.5201 30.0094 52.2826C29.1227 51.0452 28.8791 49.3692 29.376 47.9272C29.8145 46.6507 30.7889 45.4815 30.633 44.1466C30.4771 42.8507 29.2786 41.9347 28.0801 41.4378C26.8816 40.9409 25.5564 40.6778 24.4944 39.9275C22.5846 38.6024 21.9707 35.728 23.1692 33.7402" stroke="#4E91F6" stroke-width="2.5" stroke-linecap="round" stroke-linejoin="round"/>
<path d="M25.635 58.9958C23.5888 59.902 20.8898 58.6158 20.2954 56.4624C20.0226 55.4588 20.1493 54.387 19.9349 53.3737C19.7206 52.3603 18.9606 51.2982 17.918 51.3372" stroke="#4E91F6" stroke-width="2.5" stroke-linecap="round" stroke-linejoin="round"/>
<path d="M41.8002 50.666C40.4556 49.8767 40.173 48.0449 40.4361 46.5151C40.6992 44.9854 41.3715 43.5238 41.4007 41.9648C41.43 40.4058 40.4848 38.6519 38.9355 38.5447" stroke="#4E91F6" stroke-width="2.5" stroke-linecap="round" stroke-linejoin="round"/>
</svg>
