<svg width="80" height="80" viewBox="0 0 80 80" fill="none" xmlns="http://www.w3.org/2000/svg">
<path d="M60.8438 15.6049L66.2492 8.03937" stroke="#F6E54E" stroke-width="2.5" stroke-linecap="round" stroke-linejoin="round"/>
<path d="M66.9375 23.8024L77 21.6544" stroke="#F6E54E" stroke-width="2.5" stroke-linecap="round" stroke-linejoin="round"/>
<path d="M51.5645 14.6261L51.6476 1.40436" stroke="#F6E54E" stroke-width="2.5" stroke-linecap="round" stroke-linejoin="round"/>
<path d="M51.2203 70.6515C61.1758 63.5394 63.1835 47.4419 60.1897 36.4277C59.6551 34.4588 58.9423 32.2512 57.0653 31.1175C55.1882 29.9839 52.5983 30.1868 51.4816 32.275C50.555 34.0053 51.2203 36.1175 51.4697 38.0625C51.9212 41.6066 51.3985 46.8333 48.5235 48.0504C44.5317 50.4728 40.0411 42.6567 39.851 37.7403C39.7441 34.948 41.1459 31.6307 43.9021 31.2965C45.7554 31.0698 47.5137 32.287 49.3788 32.2512C51.8024 32.2034 53.8101 29.8288 53.8458 27.3945C53.8814 24.9601 52.5627 23.7072 50.4124 22.5616C48.2621 21.416 44.9832 21.237 42.5953 21.6786C37.5462 22.5974 33.1743 24.9959 31.2022 29.7572C28.6361 35.9385 30.6676 43.5875 31.6299 43.313C34.196 42.5732 31.9032 23.7072 31.2498 14.1966C31.1666 12.9794 31.0716 11.7384 30.5726 10.6167C30.0736 9.49498 29.0876 8.52841 27.8877 8.38521C25.6899 8.12269 24.1573 10.4735 23.3495 12.5498C19.2984 23.0389 21.4368 46.6781 24.3355 45.628C25.7136 45.8428 24.2761 29.0054 21.2111 20.4375C20.724 19.0772 20.0706 17.6094 18.7638 17.0247C17.3025 16.3684 15.5205 17.1202 14.5107 18.3731C13.5009 19.6261 13.1088 21.249 12.8237 22.8241C10.9585 32.991 12.3723 50.807 15.4373 49.5301C16.9342 48.671 14.6532 39.0291 9.82991 31.9886C8.97454 30.7357 7.69148 29.3753 6.20647 29.7214C2.52363 30.5567 3.45028 38.9814 3.60472 41.6544C4.00865 48.4084 5.94511 55.079 9.0577 61.0813C12.6811 68.0859 19.6785 77.1192 28.1015 78.0141" stroke="#F6E54E" stroke-width="2.5" stroke-linecap="round" stroke-linejoin="round"/>
</svg>
