<svg width="236" height="152" viewBox="0 0 236 152" fill="none" xmlns="http://www.w3.org/2000/svg">
<path d="M20.306 111.742C9.17001 96.2248 9.72041 75.8154 21.0899 60.5764C27.628 51.8088 37.363 45.5709 47.9652 42.9912" stroke="#F6E54E" stroke-width="10" stroke-linecap="round" stroke-linejoin="round"/>
<path d="M77.9527 38.5102C100.336 38.3712 119.834 54.8166 124.876 75.6931C128.434 90.415 124.965 106.599 117.009 119.342C104.4 139.546 79.1425 145.75 56.6871 142.881C52.6452 142.364 48.5033 141.469 45.1953 139.079C41.8873 136.688 39.6189 132.485 40.5696 128.515C41.5203 124.551 46.4629 121.744 49.9877 123.79C53.0177 125.546 53.6849 129.905 52.2505 133.102C50.8216 136.299 47.8528 138.523 44.845 140.313C34.076 146.712 17.9697 147.768 5.56055 146.056C10.1473 145.595 13.989 143.565 17.4137 140.485C20.8385 137.405 23.2569 133.219 24.2076 128.71" stroke="#F6E54E" stroke-width="10" stroke-linecap="round" stroke-linejoin="round"/>
<path d="M210.014 93.751C211.431 98.132 214.278 102.046 218.008 104.748C221.739 107.45 225.775 109.062 230.384 109.04C218.225 112.048 202.097 112.698 190.711 107.467C187.53 106.004 184.345 104.109 182.588 101.079C180.831 98.0486 181.031 93.6454 183.861 91.5772C187.152 89.1699 192.362 91.4438 193.724 95.2855C195.086 99.1272 193.268 103.553 190.232 106.277C187.197 109.001 183.177 110.324 179.208 111.264C157.18 116.479 131.411 112.965 116.745 94.2069C107.494 82.3704 102.34 66.6422 104.325 51.6311C106.226 37.2483 114.949 24.4055 126.764 16.1217C159.977 -7.16771 217.708 10.2618 214.372 56.5125C213.978 61.9721 212.71 67.8764 209.83 72.5966" stroke="#F6E54E" stroke-width="10" stroke-linecap="round" stroke-linejoin="round"/>
<path d="M48.4222 95.3019C51.6002 95.3019 54.1764 92.7257 54.1764 89.5477C54.1764 86.3697 51.6002 83.7935 48.4222 83.7935C45.2442 83.7935 42.668 86.3697 42.668 89.5477C42.668 92.7257 45.2442 95.3019 48.4222 95.3019Z" fill="#F6E54E"/>
<path d="M69.2601 95.3019C72.4381 95.3019 75.0143 92.7257 75.0143 89.5477C75.0143 86.3697 72.4381 83.7935 69.2601 83.7935C66.0821 83.7935 63.5059 86.3697 63.5059 89.5477C63.5059 92.7257 66.0821 95.3019 69.2601 95.3019Z" fill="#F6E54E"/>
<path d="M90.1009 95.3019C93.2789 95.3019 95.8551 92.7257 95.8551 89.5477C95.8551 86.3697 93.2789 83.7935 90.1009 83.7935C86.9229 83.7935 84.3467 86.3697 84.3467 89.5477C84.3467 92.7257 86.9229 95.3019 90.1009 95.3019Z" fill="#F6E54E"/>
<path d="M139.039 63.0563C142.217 63.0563 144.794 60.4801 144.794 57.3021C144.794 54.1241 142.217 51.5479 139.039 51.5479C135.861 51.5479 133.285 54.1241 133.285 57.3021C133.285 60.4801 135.861 63.0563 139.039 63.0563Z" fill="#F6E54E"/>
<path d="M159.876 63.0563C163.054 63.0563 165.631 60.4801 165.631 57.3021C165.631 54.1241 163.054 51.5479 159.876 51.5479C156.698 51.5479 154.122 54.1241 154.122 57.3021C154.122 60.4801 156.698 63.0563 159.876 63.0563Z" fill="#F6E54E"/>
<path d="M180.718 63.0561C183.896 63.0561 186.472 60.4798 186.472 57.3018C186.472 54.1239 183.896 51.5476 180.718 51.5476C177.54 51.5476 174.964 54.1239 174.964 57.3018C174.964 60.4798 177.54 63.0561 180.718 63.0561Z" fill="#F6E54E"/>
</svg>
