<svg width="455" height="320" viewBox="0 0 455 320" fill="none" xmlns="http://www.w3.org/2000/svg">
<path d="M7 312.034V173.625" stroke="#A0BEF8" stroke-width="14" stroke-linecap="round" stroke-linejoin="round"/>
<path d="M447.23 312.034V173.625" stroke="#A0BEF8" stroke-width="14" stroke-linecap="round" stroke-linejoin="round"/>
<path d="M224.18 312.034V229.059" stroke="#A0BEF8" stroke-width="14" stroke-linecap="round" stroke-linejoin="round"/>
<path d="M7 173.625C80.1976 168.58 174.078 188.869 224.181 229.059C285.825 183.602 362.331 171.478 447.233 172.735" stroke="#A0BEF8" stroke-width="14" stroke-linecap="round" stroke-linejoin="round"/>
<path d="M201.508 115.822C201.508 108.386 204.071 102.845 208.971 98.1771C215.23 92.2199 225.072 90.369 233.069 93.6498C241.066 96.9306 245.777 105.402 246.047 114.042" stroke="#A0BEF8" stroke-width="14" stroke-linecap="round" stroke-linejoin="round"/>
<path d="M343.617 92.0148C349.056 81.0068 359.347 72.5026 371.186 69.2326C376.08 67.8836 381.908 67.603 385.647 71.0403C388.361 73.5386 389.322 77.5371 388.852 81.1957C388.383 84.8542 386.662 88.2375 384.708 91.3618" stroke="#A0BEF8" stroke-width="14" stroke-linecap="round" stroke-linejoin="round"/>
<path d="M104.023 96.715C95.3079 88.7719 85.1903 82.3776 74.274 77.9205C68.1819 75.4275 60.8972 73.636 55.2907 77.0787C51.7077 79.2803 49.4845 83.5216 49.7111 87.7251C49.9378 91.9232 52.6088 95.9001 56.4131 97.7024" stroke="#A0BEF8" stroke-width="14" stroke-linecap="round" stroke-linejoin="round"/>
<path d="M117.838 46.9689C110.148 36.4736 106.436 30.2196 100.91 18.4399" stroke="#A0BEF8" stroke-width="14" stroke-linecap="round" stroke-linejoin="round"/>
<path d="M146.709 38.4484C146.229 26.5879 145.965 20.1018 145.484 8.23584" stroke="#A0BEF8" stroke-width="14" stroke-linecap="round" stroke-linejoin="round"/>
<path d="M176.832 42.4844C182.466 32.1186 185.083 27.3107 190.716 16.9448" stroke="#A0BEF8" stroke-width="14" stroke-linecap="round" stroke-linejoin="round"/>
<path d="M269.086 41.934C264.294 33.9371 255.007 18.4935 254.344 16.9395" stroke="#A0BEF8" stroke-width="14" stroke-linecap="round" stroke-linejoin="round"/>
<path d="M301.152 36.8726L303.581 7" stroke="#A0BEF8" stroke-width="14" stroke-linecap="round" stroke-linejoin="round"/>
<path d="M332.113 45.7384C339.08 36.4896 343.143 32.5882 350.109 23.3394" stroke="#A0BEF8" stroke-width="14" stroke-linecap="round" stroke-linejoin="round"/>
<path d="M157.787 138.532C165.339 135.887 168.958 126.597 165.871 117.783C162.784 108.968 154.16 103.966 146.608 106.61C139.056 109.255 135.436 118.545 138.523 127.36C141.61 136.175 150.235 141.177 157.787 138.532Z" fill="#A0BEF8"/>
<path d="M305.831 125.366C307.629 116.2 302.722 107.522 294.87 105.981C287.018 104.441 279.195 110.622 277.396 119.787C275.598 128.952 280.506 137.631 288.358 139.171C296.21 140.712 304.033 134.531 305.831 125.366Z" fill="#A0BEF8"/>
<path d="M152.371 64.1279C170.934 64.7107 188.724 76.6306 196.16 93.6498C203.601 110.669 200.224 131.919 187.753 145.679C183.631 150.228 178.628 153.978 173.103 156.649C159.413 163.264 142.518 162.8 129.217 155.429C115.915 148.064 107.589 133.845 104.897 118.876C100.904 96.704 111.577 82.4799 116.191 78.1523C125.85 69.0923 139.07 63.7124 152.371 64.1279Z" stroke="#A0BEF8" stroke-width="14" stroke-linecap="round" stroke-linejoin="round"/>
<path d="M295.267 64.1279C276.705 64.7107 258.914 76.6306 251.478 93.6498C244.037 110.669 247.415 131.919 259.885 145.679C264.008 150.228 269.01 153.978 274.535 156.649C288.225 163.264 305.12 162.8 318.422 155.429C331.723 148.064 340.049 133.845 342.742 118.876C346.735 96.704 336.061 82.4799 331.448 78.1523C321.789 69.0923 308.568 63.7124 295.267 64.1279Z" stroke="#A0BEF8" stroke-width="14" stroke-linecap="round" stroke-linejoin="round"/>
</svg>
