<svg width="820" height="374" viewBox="0 0 820 374" fill="none" xmlns="http://www.w3.org/2000/svg">
<path d="M164.497 31.4495C173.434 14.8338 193.131 10.3351 209.226 13.5207C225.321 16.7064 236.494 27.1742 243.601 41.9655C247.338 49.7415 248.824 58.4239 249.431 67.0248C250.243 78.4461 249.524 90.175 245.397 100.858C237.514 121.236 216.531 135.823 194.681 136.118C172.83 136.403 151.463 122.379 143.045 102.215" stroke="#F6E54E" stroke-width="10" stroke-linecap="round" stroke-linejoin="round"/>
<path d="M311.332 47.1133C311.297 44.0432 309.351 41.2101 306.804 39.4961C304.257 37.782 301.168 37.0471 298.108 36.7222C284.781 35.301 271.181 41.3494 262.235 51.3351C253.289 61.3209 248.818 74.8638 248.596 88.2735C248.419 99.1132 251.021 110.217 257.367 118.997C263.723 127.778 274.124 133.914 284.964 133.701C295.804 133.489 306.536 126.196 309.403 115.75" stroke="#F6E54E" stroke-width="10" stroke-linecap="round" stroke-linejoin="round"/>
<path d="M290.373 84.6501C314.782 72.6089 341.215 64.711 368.22 61.364" stroke="#F6E54E" stroke-width="10" stroke-linecap="round" stroke-linejoin="round"/>
<path d="M333.149 68.2982C327.43 92.5491 324.98 117.565 325.881 142.467" stroke="#F6E54E" stroke-width="10" stroke-linecap="round" stroke-linejoin="round"/>
<path d="M379.234 77.3814C369.597 75.6561 364.082 78.8073 357.752 85.0772C351.422 91.3472 348.118 100.532 349.013 109.393C349.781 117.065 353.899 124.621 360.643 128.352C367.417 132.103 376.048 131.546 382.984 128.087C393.682 122.755 400.582 110.285 398.711 98.4725C396.84 86.6595 385.895 76.742 373.935 76.723C368.975 76.7151 363.071 79.4457 362.933 84.4055C362.838 87.7253 365.603 90.6198 368.762 91.6348C371.92 92.6498 376.59 92.7473 379.811 91.9724C392.706 88.8529 403.15 80.3395 410.767 69.4816" stroke="#F6E54E" stroke-width="10" stroke-linecap="round" stroke-linejoin="round"/>
<path d="M423.382 28.887C457.115 14.4006 493.578 6.32869 530.27 5.20711" stroke="#F6E54E" stroke-width="10" stroke-linecap="round" stroke-linejoin="round"/>
<path d="M477.448 12.503C471.937 50.6043 466.417 88.6955 460.906 126.797" stroke="#F6E54E" stroke-width="10" stroke-linecap="round" stroke-linejoin="round"/>
<path d="M539.143 65.8213C539.423 59.5418 535.022 53.5747 529.226 51.1355C510.159 43.1251 490.591 66.934 491.563 84.5456C492.098 94.2164 499.434 102.778 509.595 102.034C515.156 101.633 520.301 98.6614 524.187 94.6575C528.063 90.6537 530.801 85.6881 533.059 80.5917C527.471 92.3728 527.397 113.723 537.937 120.109" stroke="#F6E54E" stroke-width="10" stroke-linecap="round" stroke-linejoin="round"/>
<path d="M578.606 41.9128C572.996 73.2139 567.396 104.515 561.786 135.816" stroke="#F6E54E" stroke-width="10" stroke-linecap="round" stroke-linejoin="round"/>
<path d="M609.996 48.1627C604.828 65.3245 595.4 83.2895 581.731 94.8777C576.895 98.97 569.12 102.098 562.894 99.3277C555.679 96.1163 553.187 85.1023 559.955 80.053C563.008 77.7679 567.199 77.3146 570.867 78.3404C576.125 79.8088 580.258 84.1854 584.122 87.8015C592.3 95.4446 597.013 105.972 601.867 116.05C606.721 126.128 612.245 136.436 621.365 142.921C630.484 149.405 644.212 150.767 652.324 143.06" stroke="#F6E54E" stroke-width="10" stroke-linecap="round" stroke-linejoin="round"/>
<path d="M638.41 51.7878C634.928 71.9123 631.446 92.0268 627.974 112.151" stroke="#F6E54E" stroke-width="10" stroke-linecap="round" stroke-linejoin="round"/>
<path d="M643.684 23.6262C642.735 28.8047 642.533 29.9344 641.585 35.1129" stroke="#F6E54E" stroke-width="10" stroke-linecap="round" stroke-linejoin="round"/>
<path d="M112.2 163.504C100.992 152.143 81.6556 145.867 63.5884 147.139C42.2999 148.632 23.4653 160.41 13.8567 180.268C-5.47174 220.213 6.82668 279.131 57.0973 286.485C80.9386 289.976 106.368 277.264 118.576 255.771" stroke="#F6E54E" stroke-width="10" stroke-linecap="round" stroke-linejoin="round"/>
<path d="M140.047 206.087C134.411 234.757 133.23 251.351 145.554 256.118C154.985 259.77 165.59 251.457 171.366 243.039C177.918 233.495 179.639 222.364 180.501 211.118C177.462 234.702 173.793 258.352 171.593 282.001C169.745 301.921 165.786 323.64 154.294 340.497C143.85 355.82 120.688 367.094 105.105 351.129C98.8398 344.704 96.5545 334.692 99.421 326.187C101.535 319.899 106.164 314.684 111.525 310.763C146.616 285.164 199.348 284.952 238.117 301.614" stroke="#F6E54E" stroke-width="10" stroke-linecap="round" stroke-linejoin="round"/>
<path d="M339.028 206.664C333.934 258.547 330.691 286.589 322.523 339.306" stroke="#F6E54E" stroke-width="10" stroke-linecap="round" stroke-linejoin="round"/>
<path d="M413.582 198.631C392.577 215.896 381.375 252.946 402.089 274.279C414.072 286.615 431.486 287.69 446.431 279.561C476.741 263.067 480.909 215.789 454.759 193.846C442.794 183.8 425.432 180.315 410.763 185.685C404.5 187.981 398.275 192.557 397.309 199.152C396.468 204.867 399.997 210.557 404.809 213.743C409.622 216.929 415.506 218.022 421.253 218.553C454.287 221.583 488.428 206.86 508.901 180.761" stroke="#F6E54E" stroke-width="10" stroke-linecap="round" stroke-linejoin="round"/>
<path d="M495.781 219.18L495.529 217.669C493.82 235.69 492.122 253.721 490.414 271.742" stroke="#F6E54E" stroke-width="10" stroke-linecap="round" stroke-linejoin="round"/>
<path d="M494.188 241.642C506.41 244.899 519.767 243.691 531.206 238.294" stroke="#F6E54E" stroke-width="10" stroke-linecap="round" stroke-linejoin="round"/>
<path d="M535.907 220.149C530.976 236.762 529.16 254.293 530.576 271.571" stroke="#F6E54E" stroke-width="10" stroke-linecap="round" stroke-linejoin="round"/>
<path d="M556.494 224.422C556.221 234.211 553.486 244.196 553.213 253.984C553.101 258.014 553.226 262.605 556.241 265.271C558.55 267.304 562.039 267.573 564.964 266.629C567.889 265.685 570.38 263.718 572.651 261.641C582.591 252.615 587.964 237.394 591.874 224.545C588.005 237.254 588.118 253.135 585.304 266.59C582.162 281.593 578.071 296.421 572.693 310.792C565.559 329.843 549.4 373.525 521.522 367.463C509.816 364.919 502.013 352.686 502.536 341.089C503.083 328.962 511.162 318.076 521.438 311.602C531.713 305.128 543.938 302.494 556.005 301.17C579.259 298.617 602.989 300.557 625.525 306.83" stroke="#F6E54E" stroke-width="10" stroke-linecap="round" stroke-linejoin="round"/>
<path d="M624.217 214.651C621.405 235.056 618.604 255.451 615.792 275.856" stroke="#F6E54E" stroke-width="10" stroke-linecap="round" stroke-linejoin="round"/>
<path d="M658.987 209.461C656.673 221.129 650.802 232.217 642.416 240.651C638.152 244.938 633.221 248.851 627.569 251.12C622.237 253.261 615.053 253.982 610.072 250.505C608.846 249.648 607.883 248.423 607.401 247C606.308 243.754 607.864 240.892 610.286 238.786C612.898 236.51 617.271 235.954 620.639 236.282C624.797 236.675 628.486 238.765 631.783 241.183C636.614 244.729 640.307 249.59 643.741 254.428C649.06 261.918 652.804 270.388 657.531 278.254C662.258 286.13 668.277 293.643 676.545 297.648C684.813 301.644 695.716 301.273 702.201 294.778" stroke="#F6E54E" stroke-width="10" stroke-linecap="round" stroke-linejoin="round"/>
<path d="M677.924 222.475C675.568 231.145 673.351 242.061 673.315 251.322C674.046 256.646 677.222 263.152 682.527 264.041C686.483 264.712 690.208 262.052 693.073 259.238C700.805 251.66 706.309 241.83 708.716 231.273C705.764 239.087 704.697 247.601 705.622 255.897C706.003 259.329 706.682 263.182 708.997 265.885C712.237 269.663 719.956 269.805 721.317 264.162" stroke="#F6E54E" stroke-width="10" stroke-linecap="round" stroke-linejoin="round"/>
<path d="M724.373 114.977C732.895 123.643 737.98 135.611 738.304 147.763C738.637 159.915 734.201 172.131 726.161 181.258C723.504 184.273 720.349 187.026 716.513 188.215C712.676 189.404 708.05 188.709 705.396 185.694C702.842 182.8 702.605 178.569 702.896 174.73C704.351 155.488 716.55 137.414 733.837 128.849C751.134 120.293 772.897 121.552 789.08 132.06C805.263 142.569 815.278 161.934 814.492 181.22C813.718 200.336 803.223 217.759 790.803 232.311C778.383 246.864 763.774 259.504 752.191 274.741C740.617 289.968 732.064 308.832 734.511 327.805" stroke="#F6E54E" stroke-width="10" stroke-linecap="round" stroke-linejoin="round"/>
<path d="M203.48 205.604C201.107 224.441 198.358 246.316 195.995 265.154" stroke="#F6E54E" stroke-width="10" stroke-linecap="round" stroke-linejoin="round"/>
<path d="M201.115 225.101C204.288 218.978 208.421 213.091 214.291 209.463C220.16 205.835 228.056 204.878 233.926 208.51C238.082 211.072 240.748 215.567 242.082 220.264C246.095 234.337 243.093 251.16 238.329 264.675" stroke="#F6E54E" stroke-width="10" stroke-linecap="round" stroke-linejoin="round"/>
<path d="M259.784 232.532C265.392 240.162 274.767 244.884 284.247 244.825C296.258 244.751 314.102 234.838 312.229 220.738C310.375 206.817 294.287 204.55 283.954 210.663C271.002 218.323 265.955 243.245 273.516 255.967C276.836 261.555 283.065 265.309 289.564 265.625C296.062 265.94 302.629 262.826 306.478 257.587" stroke="#F6E54E" stroke-width="10" stroke-linecap="round" stroke-linejoin="round"/>
<path d="M331.804 207.194C346.46 204.314 361.926 206.838 369.769 221.072C376.957 234.131 372.417 252.576 361.553 262.337C350.69 272.098 335.176 272.753 321.812 269.72" stroke="#F6E54E" stroke-width="10" stroke-linecap="round" stroke-linejoin="round"/>
<path d="M737.581 364.463C742.552 364.49 746.603 360.483 746.63 355.512C746.657 350.542 742.65 346.49 737.68 346.463C732.709 346.436 728.658 350.443 728.631 355.414C728.603 360.384 732.611 364.436 737.581 364.463Z" fill="#F6E54E"/>
</svg>
