<svg width="173" height="60" viewBox="0 0 173 60" fill="none" xmlns="http://www.w3.org/2000/svg">
<path d="M47.5108 37.8135C48.0951 32.2818 47.037 26.4829 45.6839 23.0982C42.3266 14.6811 31.7606 10.2413 23.3316 11.8295C16.4141 13.1346 10.0431 17.4917 6.69605 23.6846C1.50944 33.2756 4.86957 46.5792 13.9791 52.5676C23.094 58.5555 36.6362 56.3475 43.3759 47.7785C45.6557 44.8792 47.0321 41.4624 47.5053 37.8139C47.8953 34.7876 50.6208 28.6597 53.268 26.7322C59.5189 22.1756 70.2027 22.357 74.5542 29.0088" stroke="#F6E54E" stroke-width="8" stroke-linecap="round" stroke-linejoin="round"/>
<path d="M88.009 8.03567C83.0722 10.1368 78.9767 14.14 76.77 19.029C72.3985 28.7101 76.519 41.4046 85.762 46.6404C95.0051 51.8762 108.038 48.8561 114.008 40.0723C119.978 31.2886 117.957 18.0232 109.615 11.4471C101.273 4.87104 86.8529 4.21777 79.8199 14.1675" stroke="#F6E54E" stroke-width="8" stroke-linecap="round" stroke-linejoin="round"/>
<path d="M116.887 20.3716C121.301 16.9316 123.811 13.811 129.134 12.0754C134.457 10.3454 142.026 10.6934 146.887 13.4629C151.749 16.2325 154.936 22.2002 153.468 27.6031C152.005 33.0056 146.013 35.8104 141.088 33.1447C136.777 30.8103 134.659 25.5781 136.542 21.0552C138.431 16.5319 142.785 13.443 147.393 11.7798C155.144 8.97484 162.454 8.74948 168.527 15.0578" stroke="#F6E54E" stroke-width="8" stroke-linecap="round" stroke-linejoin="round"/>
<path d="M26.5015 39.6433C29.9806 39.3712 32.5804 36.3303 32.3083 32.8512C32.0362 29.3722 28.9953 26.7724 25.5162 27.0445C22.0372 27.3165 19.4374 30.3575 19.7094 33.8365C19.9815 37.3156 23.0225 39.9154 26.5015 39.6433Z" fill="#F6E54E"/>
<path d="M95.5992 34.2395C99.0782 33.9674 101.678 30.9265 101.406 27.4474C101.134 23.9683 98.0929 21.3686 94.6139 21.6407C91.1348 21.9127 88.535 24.9537 88.8071 28.4327C89.0792 31.9118 92.1201 34.5116 95.5992 34.2395Z" fill="#F6E54E"/>
</svg>
