<svg width="436" height="507" viewBox="0 0 436 507" fill="none" xmlns="http://www.w3.org/2000/svg">
<path opacity="0.24" d="M86.3719 491C229.591 439.934 334.827 296.743 340.673 145.004C341.682 118.958 339.855 92.1649 329.363 68.3085C318.871 44.4347 298.461 23.7927 272.918 18.389C242.294 11.908 210.086 28.8316 191.642 54.0781C173.198 79.3245 166.516 111.365 164.916 142.571C164.115 158.244 167.265 177.947 182.298 182.5C193.26 185.818 205.336 178.017 209.895 167.522C214.454 157.027 212.957 144.847 209.477 133.935C196.079 91.9738 151.831 62.0881 107.844 65.3026C63.8562 68.517 24.4278 104.501 17.2938 147.957C11.3604 184.046 26.3766 221.507 51.2412 248.37C76.1059 275.232 109.845 292.503 144.662 303.85C234.585 333.162 336.219 324.631 420 280.775" stroke="#FDFDFD" stroke-width="32" stroke-linecap="round" stroke-linejoin="round"/>
</svg>
