<svg width="140" height="155" viewBox="0 0 140 155" fill="none" xmlns="http://www.w3.org/2000/svg">
<path d="M25.2891 14.2056C25.9122 48.0245 26.3489 71.6231 26.9773 105.442" stroke="#A0BEF8" stroke-width="6" stroke-linecap="round" stroke-linejoin="round"/>
<path d="M7.80961 41.756C7.21312 41.7347 45.6335 77.7638 45.6335 77.7638" stroke="#A0BEF8" stroke-width="6" stroke-linecap="round" stroke-linejoin="round"/>
<path d="M5.06738 80.9592C16.8374 68.1613 32.5326 52.0241 44.3026 39.2262" stroke="#A0BEF8" stroke-width="6" stroke-linecap="round" stroke-linejoin="round"/>
<path d="M3 60.9289C18.4448 60.4016 33.895 59.8691 49.3399 59.3418" stroke="#A0BEF8" stroke-width="6" stroke-linecap="round" stroke-linejoin="round"/>
<path d="M85.1025 85.6512V151.409" stroke="#A0BEF8" stroke-width="6" stroke-linecap="round" stroke-linejoin="round"/>
<path d="M69.6357 101.767C79.9465 112.089 90.252 122.405 100.563 132.726" stroke="#A0BEF8" stroke-width="6" stroke-linecap="round" stroke-linejoin="round"/>
<path d="M102.285 102.875C91.6974 112.456 81.1097 122.032 70.5273 131.613" stroke="#A0BEF8" stroke-width="6" stroke-linecap="round" stroke-linejoin="round"/>
<path d="M63.7744 117.585C76.828 117.691 89.8815 117.798 102.935 117.904" stroke="#A0BEF8" stroke-width="6" stroke-linecap="round" stroke-linejoin="round"/>
<path d="M115.077 3V66.4038" stroke="#A0BEF8" stroke-width="6" stroke-linecap="round" stroke-linejoin="round"/>
<path d="M101.132 21.9066C109.627 29.5225 118.121 37.1384 126.616 44.7597" stroke="#A0BEF8" stroke-width="6" stroke-linecap="round" stroke-linejoin="round"/>
<path d="M129.041 18.301C118.794 29.661 109.762 39.6788 99.5146 51.0388" stroke="#A0BEF8" stroke-width="6" stroke-linecap="round" stroke-linejoin="round"/>
<path d="M98.7002 34.9176C109.836 34.5448 125.766 34.0068 136.902 33.634" stroke="#A0BEF8" stroke-width="6" stroke-linecap="round" stroke-linejoin="round"/>
</svg>
